<mxfile host="app.diagrams.net" agent="Mozilla/5.0 (Windows NT 10.0; Win64; x64) AppleWebKit/537.36 (KHTML, like Gecko) Chrome/131.0.0.0 Safari/537.36" version="24.9.3" pages="5">
  <diagram name="Page-1" id="abuluFuqt7nSwcbN45rl">
    <mxGraphModel dx="1444" dy="895" grid="1" gridSize="10" guides="1" tooltips="1" connect="1" arrows="1" fold="1" page="1" pageScale="1" pageWidth="850" pageHeight="1100" math="0" shadow="0">
      <root>
        <mxCell id="0" />
        <mxCell id="1" parent="0" />
        <mxCell id="I2S81nTjqpgP3ti-CoIY-1" value="AWS Cloud" style="points=[[0,0],[0.25,0],[0.5,0],[0.75,0],[1,0],[1,0.25],[1,0.5],[1,0.75],[1,1],[0.75,1],[0.5,1],[0.25,1],[0,1],[0,0.75],[0,0.5],[0,0.25]];outlineConnect=0;gradientColor=none;html=1;whiteSpace=wrap;fontSize=12;fontStyle=0;shape=mxgraph.aws4.group;grIcon=mxgraph.aws4.group_aws_cloud_alt;strokeColor=#232F3E;fillColor=none;verticalAlign=top;align=left;spacingLeft=30;fontColor=#232F3E;dashed=0;container=1;pointerEvents=0;collapsible=0;recursiveResize=0;" parent="1" vertex="1">
          <mxGeometry x="140" y="175" width="1320" height="835" as="geometry" />
        </mxCell>
        <mxCell id="I2S81nTjqpgP3ti-CoIY-2" value="" style="edgeStyle=orthogonalEdgeStyle;rounded=0;orthogonalLoop=1;jettySize=auto;html=1;" parent="I2S81nTjqpgP3ti-CoIY-1" source="I2S81nTjqpgP3ti-CoIY-3" target="I2S81nTjqpgP3ti-CoIY-4" edge="1">
          <mxGeometry relative="1" as="geometry" />
        </mxCell>
        <mxCell id="I2S81nTjqpgP3ti-CoIY-3" value="Cloudfront" style="sketch=0;points=[[0,0,0],[0.25,0,0],[0.5,0,0],[0.75,0,0],[1,0,0],[0,1,0],[0.25,1,0],[0.5,1,0],[0.75,1,0],[1,1,0],[0,0.25,0],[0,0.5,0],[0,0.75,0],[1,0.25,0],[1,0.5,0],[1,0.75,0]];outlineConnect=0;fontColor=#232F3E;fillColor=#8C4FFF;strokeColor=#ffffff;dashed=0;verticalLabelPosition=bottom;verticalAlign=top;align=center;html=1;fontSize=12;fontStyle=0;aspect=fixed;shape=mxgraph.aws4.resourceIcon;resIcon=mxgraph.aws4.cloudfront;" parent="I2S81nTjqpgP3ti-CoIY-1" vertex="1">
          <mxGeometry x="80" y="491" width="78" height="78" as="geometry" />
        </mxCell>
        <mxCell id="I2S81nTjqpgP3ti-CoIY-4" value="Amazon S3" style="sketch=0;points=[[0,0,0],[0.25,0,0],[0.5,0,0],[0.75,0,0],[1,0,0],[0,1,0],[0.25,1,0],[0.5,1,0],[0.75,1,0],[1,1,0],[0,0.25,0],[0,0.5,0],[0,0.75,0],[1,0.25,0],[1,0.5,0],[1,0.75,0]];outlineConnect=0;fontColor=#232F3E;fillColor=#7AA116;strokeColor=#ffffff;dashed=0;verticalLabelPosition=bottom;verticalAlign=top;align=center;html=1;fontSize=12;fontStyle=0;aspect=fixed;shape=mxgraph.aws4.resourceIcon;resIcon=mxgraph.aws4.s3;" parent="I2S81nTjqpgP3ti-CoIY-1" vertex="1">
          <mxGeometry x="80" y="655" width="78" height="78" as="geometry" />
        </mxCell>
        <mxCell id="I2S81nTjqpgP3ti-CoIY-5" style="edgeStyle=orthogonalEdgeStyle;rounded=0;orthogonalLoop=1;jettySize=auto;html=1;exitX=1;exitY=0.5;exitDx=0;exitDy=0;exitPerimeter=0;entryX=0.5;entryY=1;entryDx=0;entryDy=0;entryPerimeter=0;" parent="I2S81nTjqpgP3ti-CoIY-1" source="I2S81nTjqpgP3ti-CoIY-3" target="I2S81nTjqpgP3ti-CoIY-10" edge="1">
          <mxGeometry relative="1" as="geometry" />
        </mxCell>
        <mxCell id="I2S81nTjqpgP3ti-CoIY-6" value="Region" style="points=[[0,0],[0.25,0],[0.5,0],[0.75,0],[1,0],[1,0.25],[1,0.5],[1,0.75],[1,1],[0.75,1],[0.5,1],[0.25,1],[0,1],[0,0.75],[0,0.5],[0,0.25]];outlineConnect=0;gradientColor=none;html=1;whiteSpace=wrap;fontSize=12;fontStyle=0;container=1;pointerEvents=0;collapsible=0;recursiveResize=0;shape=mxgraph.aws4.group;grIcon=mxgraph.aws4.group_region;strokeColor=#00A4A6;fillColor=none;verticalAlign=top;align=left;spacingLeft=30;fontColor=#147EBA;dashed=1;" parent="I2S81nTjqpgP3ti-CoIY-1" vertex="1">
          <mxGeometry x="180" y="26" width="1110" height="795" as="geometry" />
        </mxCell>
        <mxCell id="I2S81nTjqpgP3ti-CoIY-7" value="SQS FIFO Queue" style="sketch=0;outlineConnect=0;fontColor=#232F3E;gradientColor=none;fillColor=#E7157B;strokeColor=none;dashed=0;verticalLabelPosition=bottom;verticalAlign=top;align=center;html=1;fontSize=12;fontStyle=0;aspect=fixed;pointerEvents=1;shape=mxgraph.aws4.queue;" parent="I2S81nTjqpgP3ti-CoIY-6" vertex="1">
          <mxGeometry x="96" y="29" width="78" height="47" as="geometry" />
        </mxCell>
        <mxCell id="I2S81nTjqpgP3ti-CoIY-8" value="3" style="rounded=1;whiteSpace=wrap;html=1;fillColor=#007CBD;strokeColor=none;fontColor=#FFFFFF;fontStyle=1;fontSize=22;" parent="I2S81nTjqpgP3ti-CoIY-6" vertex="1">
          <mxGeometry x="10" y="389" width="40" height="38" as="geometry" />
        </mxCell>
        <mxCell id="I2S81nTjqpgP3ti-CoIY-9" value="4" style="rounded=1;whiteSpace=wrap;html=1;fillColor=#007CBD;strokeColor=none;fontColor=#FFFFFF;fontStyle=1;fontSize=22;" parent="I2S81nTjqpgP3ti-CoIY-6" vertex="1">
          <mxGeometry x="270" y="9" width="40" height="38" as="geometry" />
        </mxCell>
        <mxCell id="I2S81nTjqpgP3ti-CoIY-10" value="Cognito" style="sketch=0;points=[[0,0,0],[0.25,0,0],[0.5,0,0],[0.75,0,0],[1,0,0],[0,1,0],[0.25,1,0],[0.5,1,0],[0.75,1,0],[1,1,0],[0,0.25,0],[0,0.5,0],[0,0.75,0],[1,0.25,0],[1,0.5,0],[1,0.75,0]];outlineConnect=0;fontColor=#232F3E;fillColor=#DD344C;strokeColor=#ffffff;dashed=0;verticalLabelPosition=bottom;verticalAlign=top;align=center;html=1;fontSize=12;fontStyle=0;aspect=fixed;shape=mxgraph.aws4.resourceIcon;resIcon=mxgraph.aws4.cognito;" parent="I2S81nTjqpgP3ti-CoIY-6" vertex="1">
          <mxGeometry x="52" y="369" width="78" height="78" as="geometry" />
        </mxCell>
        <mxCell id="I2S81nTjqpgP3ti-CoIY-11" value="5" style="rounded=1;whiteSpace=wrap;html=1;fillColor=#007CBD;strokeColor=none;fontColor=#FFFFFF;fontStyle=1;fontSize=22;" parent="I2S81nTjqpgP3ti-CoIY-6" vertex="1">
          <mxGeometry x="430" y="521" width="40" height="38" as="geometry" />
        </mxCell>
        <mxCell id="I2S81nTjqpgP3ti-CoIY-12" value="6" style="rounded=1;whiteSpace=wrap;html=1;fillColor=#007CBD;strokeColor=none;fontColor=#FFFFFF;fontStyle=1;fontSize=22;" parent="I2S81nTjqpgP3ti-CoIY-6" vertex="1">
          <mxGeometry x="610.5" y="584.5" width="40" height="38" as="geometry" />
        </mxCell>
        <mxCell id="I2S81nTjqpgP3ti-CoIY-13" value="8" style="rounded=1;whiteSpace=wrap;html=1;fillColor=#007CBD;strokeColor=none;fontColor=#FFFFFF;fontStyle=1;fontSize=22;" parent="I2S81nTjqpgP3ti-CoIY-6" vertex="1">
          <mxGeometry x="610.5" y="704.5" width="40" height="38" as="geometry" />
        </mxCell>
        <mxCell id="I2S81nTjqpgP3ti-CoIY-14" value="9" style="rounded=1;whiteSpace=wrap;html=1;fillColor=#007CBD;strokeColor=none;fontColor=#FFFFFF;fontStyle=1;fontSize=22;" parent="I2S81nTjqpgP3ti-CoIY-6" vertex="1">
          <mxGeometry x="179" y="135" width="40" height="38" as="geometry" />
        </mxCell>
        <mxCell id="I2S81nTjqpgP3ti-CoIY-15" value="DynamoDB" style="sketch=0;points=[[0,0,0],[0.25,0,0],[0.5,0,0],[0.75,0,0],[1,0,0],[0,1,0],[0.25,1,0],[0.5,1,0],[0.75,1,0],[1,1,0],[0,0.25,0],[0,0.5,0],[0,0.75,0],[1,0.25,0],[1,0.5,0],[1,0.75,0]];outlineConnect=0;fontColor=#232F3E;fillColor=#C925D1;strokeColor=#ffffff;dashed=0;verticalLabelPosition=bottom;verticalAlign=top;align=center;html=1;fontSize=12;fontStyle=0;aspect=fixed;shape=mxgraph.aws4.resourceIcon;resIcon=mxgraph.aws4.dynamodb;" parent="I2S81nTjqpgP3ti-CoIY-6" vertex="1">
          <mxGeometry x="466" y="569" width="78" height="78" as="geometry" />
        </mxCell>
        <mxCell id="I2S81nTjqpgP3ti-CoIY-16" value="Amazon Bedrock" style="sketch=0;points=[[0,0,0],[0.25,0,0],[0.5,0,0],[0.75,0,0],[1,0,0],[0,1,0],[0.25,1,0],[0.5,1,0],[0.75,1,0],[1,1,0],[0,0.25,0],[0,0.5,0],[0,0.75,0],[1,0.25,0],[1,0.5,0],[1,0.75,0]];outlineConnect=0;fontColor=#232F3E;fillColor=#01A88D;strokeColor=#ffffff;dashed=0;verticalLabelPosition=bottom;verticalAlign=top;align=center;html=1;fontSize=12;fontStyle=0;aspect=fixed;shape=mxgraph.aws4.resourceIcon;resIcon=mxgraph.aws4.bedrock;" parent="I2S81nTjqpgP3ti-CoIY-6" vertex="1">
          <mxGeometry x="660.5" y="678.5" width="78" height="78" as="geometry" />
        </mxCell>
        <mxCell id="I2S81nTjqpgP3ti-CoIY-17" value="&lt;span style=&quot;background-color: initial;&quot;&gt;Bedrock&lt;/span&gt;&lt;div&gt;&lt;span style=&quot;background-color: initial;&quot;&gt;Knowledge Base&lt;/span&gt;&lt;/div&gt;" style="sketch=0;points=[[0,0,0],[0.25,0,0],[0.5,0,0],[0.75,0,0],[1,0,0],[0,1,0],[0.25,1,0],[0.5,1,0],[0.75,1,0],[1,1,0],[0,0.25,0],[0,0.5,0],[0,0.75,0],[1,0.25,0],[1,0.5,0],[1,0.75,0]];outlineConnect=0;fontColor=#232F3E;fillColor=#01A88D;strokeColor=#ffffff;dashed=0;verticalLabelPosition=bottom;verticalAlign=top;align=center;html=1;fontSize=12;fontStyle=0;aspect=fixed;shape=mxgraph.aws4.resourceIcon;resIcon=mxgraph.aws4.bedrock;" parent="I2S81nTjqpgP3ti-CoIY-6" vertex="1">
          <mxGeometry x="660.5" y="556.5" width="78" height="78" as="geometry" />
        </mxCell>
        <mxCell id="I2S81nTjqpgP3ti-CoIY-18" value="7" style="rounded=1;whiteSpace=wrap;html=1;fillColor=#007CBD;strokeColor=none;fontColor=#FFFFFF;fontStyle=1;fontSize=22;" parent="I2S81nTjqpgP3ti-CoIY-6" vertex="1">
          <mxGeometry x="870" y="577" width="40" height="38" as="geometry" />
        </mxCell>
        <mxCell id="I2S81nTjqpgP3ti-CoIY-19" value="Availability Zone" style="fillColor=none;strokeColor=#147EBA;dashed=1;verticalAlign=top;fontStyle=0;fontColor=#147EBA;whiteSpace=wrap;html=1;" parent="I2S81nTjqpgP3ti-CoIY-6" vertex="1">
          <mxGeometry x="540" y="39" width="180" height="451" as="geometry" />
        </mxCell>
        <mxCell id="I2S81nTjqpgP3ti-CoIY-20" value="Public subnet" style="points=[[0,0],[0.25,0],[0.5,0],[0.75,0],[1,0],[1,0.25],[1,0.5],[1,0.75],[1,1],[0.75,1],[0.5,1],[0.25,1],[0,1],[0,0.75],[0,0.5],[0,0.25]];outlineConnect=0;gradientColor=none;html=1;whiteSpace=wrap;fontSize=12;fontStyle=0;container=1;pointerEvents=0;collapsible=0;recursiveResize=0;shape=mxgraph.aws4.group;grIcon=mxgraph.aws4.group_security_group;grStroke=0;strokeColor=#7AA116;fillColor=#F2F6E8;verticalAlign=top;align=left;spacingLeft=30;fontColor=#248814;dashed=0;" parent="I2S81nTjqpgP3ti-CoIY-6" vertex="1">
          <mxGeometry x="565" y="119" width="130" height="130" as="geometry" />
        </mxCell>
        <mxCell id="I2S81nTjqpgP3ti-CoIY-21" value="NAT" style="sketch=0;outlineConnect=0;fontColor=#232F3E;gradientColor=none;fillColor=#8C4FFF;strokeColor=none;dashed=0;verticalLabelPosition=bottom;verticalAlign=top;align=center;html=1;fontSize=12;fontStyle=0;aspect=fixed;pointerEvents=1;shape=mxgraph.aws4.nat_gateway;" parent="I2S81nTjqpgP3ti-CoIY-20" vertex="1">
          <mxGeometry x="39.5" y="39.5" width="51" height="51" as="geometry" />
        </mxCell>
        <mxCell id="I2S81nTjqpgP3ti-CoIY-22" value="Private subnet" style="points=[[0,0],[0.25,0],[0.5,0],[0.75,0],[1,0],[1,0.25],[1,0.5],[1,0.75],[1,1],[0.75,1],[0.5,1],[0.25,1],[0,1],[0,0.75],[0,0.5],[0,0.25]];outlineConnect=0;gradientColor=none;html=1;whiteSpace=wrap;fontSize=12;fontStyle=0;container=1;pointerEvents=0;collapsible=0;recursiveResize=0;shape=mxgraph.aws4.group;grIcon=mxgraph.aws4.group_security_group;grStroke=0;strokeColor=#00A4A6;fillColor=#E6F6F7;verticalAlign=top;align=left;spacingLeft=30;fontColor=#147EBA;dashed=0;" parent="I2S81nTjqpgP3ti-CoIY-6" vertex="1">
          <mxGeometry x="565" y="327" width="130" height="130" as="geometry" />
        </mxCell>
        <mxCell id="I2S81nTjqpgP3ti-CoIY-23" value="ENI" style="sketch=0;outlineConnect=0;fontColor=#232F3E;gradientColor=none;fillColor=#8C4FFF;strokeColor=none;dashed=0;verticalLabelPosition=bottom;verticalAlign=top;align=center;html=1;fontSize=12;fontStyle=0;aspect=fixed;pointerEvents=1;shape=mxgraph.aws4.elastic_network_interface;" parent="I2S81nTjqpgP3ti-CoIY-22" vertex="1">
          <mxGeometry x="39.5" y="42" width="51" height="51" as="geometry" />
        </mxCell>
        <mxCell id="I2S81nTjqpgP3ti-CoIY-24" value="Availability Zone" style="fillColor=none;strokeColor=#147EBA;dashed=1;verticalAlign=top;fontStyle=0;fontColor=#147EBA;whiteSpace=wrap;html=1;" parent="I2S81nTjqpgP3ti-CoIY-6" vertex="1">
          <mxGeometry x="810" y="39" width="180" height="451" as="geometry" />
        </mxCell>
        <mxCell id="I2S81nTjqpgP3ti-CoIY-25" value="Public subnet" style="points=[[0,0],[0.25,0],[0.5,0],[0.75,0],[1,0],[1,0.25],[1,0.5],[1,0.75],[1,1],[0.75,1],[0.5,1],[0.25,1],[0,1],[0,0.75],[0,0.5],[0,0.25]];outlineConnect=0;gradientColor=none;html=1;whiteSpace=wrap;fontSize=12;fontStyle=0;container=1;pointerEvents=0;collapsible=0;recursiveResize=0;shape=mxgraph.aws4.group;grIcon=mxgraph.aws4.group_security_group;grStroke=0;strokeColor=#7AA116;fillColor=#F2F6E8;verticalAlign=top;align=left;spacingLeft=30;fontColor=#248814;dashed=0;" parent="I2S81nTjqpgP3ti-CoIY-6" vertex="1">
          <mxGeometry x="835" y="119" width="130" height="130" as="geometry" />
        </mxCell>
        <mxCell id="I2S81nTjqpgP3ti-CoIY-26" value="NAT" style="sketch=0;outlineConnect=0;fontColor=#232F3E;gradientColor=none;fillColor=#8C4FFF;strokeColor=none;dashed=0;verticalLabelPosition=bottom;verticalAlign=top;align=center;html=1;fontSize=12;fontStyle=0;aspect=fixed;pointerEvents=1;shape=mxgraph.aws4.nat_gateway;" parent="I2S81nTjqpgP3ti-CoIY-25" vertex="1">
          <mxGeometry x="39.5" y="39.5" width="51" height="51" as="geometry" />
        </mxCell>
        <mxCell id="I2S81nTjqpgP3ti-CoIY-27" value="Private subnet" style="points=[[0,0],[0.25,0],[0.5,0],[0.75,0],[1,0],[1,0.25],[1,0.5],[1,0.75],[1,1],[0.75,1],[0.5,1],[0.25,1],[0,1],[0,0.75],[0,0.5],[0,0.25]];outlineConnect=0;gradientColor=none;html=1;whiteSpace=wrap;fontSize=12;fontStyle=0;container=1;pointerEvents=0;collapsible=0;recursiveResize=0;shape=mxgraph.aws4.group;grIcon=mxgraph.aws4.group_security_group;grStroke=0;strokeColor=#00A4A6;fillColor=#E6F6F7;verticalAlign=top;align=left;spacingLeft=30;fontColor=#147EBA;dashed=0;" parent="I2S81nTjqpgP3ti-CoIY-6" vertex="1">
          <mxGeometry x="835" y="327" width="130" height="130" as="geometry" />
        </mxCell>
        <mxCell id="I2S81nTjqpgP3ti-CoIY-28" value="ENI" style="sketch=0;outlineConnect=0;fontColor=#232F3E;gradientColor=none;fillColor=#8C4FFF;strokeColor=none;dashed=0;verticalLabelPosition=bottom;verticalAlign=top;align=center;html=1;fontSize=12;fontStyle=0;aspect=fixed;pointerEvents=1;shape=mxgraph.aws4.elastic_network_interface;" parent="I2S81nTjqpgP3ti-CoIY-27" vertex="1">
          <mxGeometry x="39.5" y="42" width="51" height="51" as="geometry" />
        </mxCell>
        <mxCell id="I2S81nTjqpgP3ti-CoIY-29" value="VPC" style="points=[[0,0],[0.25,0],[0.5,0],[0.75,0],[1,0],[1,0.25],[1,0.5],[1,0.75],[1,1],[0.75,1],[0.5,1],[0.25,1],[0,1],[0,0.75],[0,0.5],[0,0.25]];outlineConnect=0;gradientColor=none;html=1;whiteSpace=wrap;fontSize=12;fontStyle=0;container=1;pointerEvents=0;collapsible=0;recursiveResize=0;shape=mxgraph.aws4.group;grIcon=mxgraph.aws4.group_vpc2;strokeColor=#8C4FFF;fillColor=none;verticalAlign=top;align=left;spacingLeft=30;fontColor=#AAB7B8;dashed=0;" parent="I2S81nTjqpgP3ti-CoIY-6" vertex="1">
          <mxGeometry x="477" y="84" width="573" height="386" as="geometry" />
        </mxCell>
        <mxCell id="I2S81nTjqpgP3ti-CoIY-30" value="Router" style="sketch=0;outlineConnect=0;fontColor=#232F3E;gradientColor=none;fillColor=#8C4FFF;strokeColor=none;dashed=0;verticalLabelPosition=bottom;verticalAlign=top;align=center;html=1;fontSize=12;fontStyle=0;aspect=fixed;pointerEvents=1;shape=mxgraph.aws4.customer_gateway;" parent="I2S81nTjqpgP3ti-CoIY-29" vertex="1">
          <mxGeometry x="263" y="165" width="55" height="55" as="geometry" />
        </mxCell>
        <mxCell id="I2S81nTjqpgP3ti-CoIY-31" value="Internet Gateway" style="sketch=0;outlineConnect=0;fontColor=#232F3E;gradientColor=none;fillColor=#8C4FFF;strokeColor=none;dashed=0;verticalLabelPosition=bottom;verticalAlign=top;align=center;html=1;fontSize=12;fontStyle=0;aspect=fixed;pointerEvents=1;shape=mxgraph.aws4.internet_gateway;" parent="I2S81nTjqpgP3ti-CoIY-29" vertex="1">
          <mxGeometry x="265" y="-25" width="53" height="53" as="geometry" />
        </mxCell>
        <mxCell id="I2S81nTjqpgP3ti-CoIY-32" value="Amazon CLoudwatch" style="sketch=0;points=[[0,0,0],[0.25,0,0],[0.5,0,0],[0.75,0,0],[1,0,0],[0,1,0],[0.25,1,0],[0.5,1,0],[0.75,1,0],[1,1,0],[0,0.25,0],[0,0.5,0],[0,0.75,0],[1,0.25,0],[1,0.5,0],[1,0.75,0]];points=[[0,0,0],[0.25,0,0],[0.5,0,0],[0.75,0,0],[1,0,0],[0,1,0],[0.25,1,0],[0.5,1,0],[0.75,1,0],[1,1,0],[0,0.25,0],[0,0.5,0],[0,0.75,0],[1,0.25,0],[1,0.5,0],[1,0.75,0]];outlineConnect=0;fontColor=#232F3E;fillColor=#E7157B;strokeColor=#ffffff;dashed=0;verticalLabelPosition=bottom;verticalAlign=top;align=center;html=1;fontSize=12;fontStyle=0;aspect=fixed;shape=mxgraph.aws4.resourceIcon;resIcon=mxgraph.aws4.cloudwatch_2;" parent="I2S81nTjqpgP3ti-CoIY-6" vertex="1">
          <mxGeometry x="120" y="687" width="78" height="78" as="geometry" />
        </mxCell>
        <mxCell id="I2S81nTjqpgP3ti-CoIY-33" value="Comprehend" style="sketch=0;points=[[0,0,0],[0.25,0,0],[0.5,0,0],[0.75,0,0],[1,0,0],[0,1,0],[0.25,1,0],[0.5,1,0],[0.75,1,0],[1,1,0],[0,0.25,0],[0,0.5,0],[0,0.75,0],[1,0.25,0],[1,0.5,0],[1,0.75,0]];outlineConnect=0;fontColor=#232F3E;fillColor=#01A88D;strokeColor=#ffffff;dashed=0;verticalLabelPosition=bottom;verticalAlign=top;align=center;html=1;fontSize=12;fontStyle=0;aspect=fixed;shape=mxgraph.aws4.resourceIcon;resIcon=mxgraph.aws4.comprehend;" parent="I2S81nTjqpgP3ti-CoIY-6" vertex="1">
          <mxGeometry x="920" y="561" width="78" height="78" as="geometry" />
        </mxCell>
        <mxCell id="I2S81nTjqpgP3ti-CoIY-34" value="VPC Gateway&lt;div&gt;Endpoint&lt;/div&gt;" style="sketch=0;outlineConnect=0;fontColor=#232F3E;gradientColor=none;fillColor=#8C4FFF;strokeColor=none;dashed=0;verticalLabelPosition=bottom;verticalAlign=top;align=center;html=1;fontSize=12;fontStyle=0;aspect=fixed;pointerEvents=1;shape=mxgraph.aws4.endpoints;" parent="I2S81nTjqpgP3ti-CoIY-6" vertex="1">
          <mxGeometry x="480" y="447" width="50" height="50" as="geometry" />
        </mxCell>
        <mxCell id="I2S81nTjqpgP3ti-CoIY-35" value="" style="fillColor=none;strokeColor=#5A6C86;dashed=1;verticalAlign=top;fontStyle=0;fontColor=#5A6C86;whiteSpace=wrap;html=1;" parent="I2S81nTjqpgP3ti-CoIY-6" vertex="1">
          <mxGeometry x="590" y="539" width="280" height="241" as="geometry" />
        </mxCell>
        <mxCell id="I2S81nTjqpgP3ti-CoIY-36" style="edgeStyle=orthogonalEdgeStyle;rounded=0;orthogonalLoop=1;jettySize=auto;html=1;entryX=0.5;entryY=0;entryDx=0;entryDy=0;entryPerimeter=0;" parent="I2S81nTjqpgP3ti-CoIY-6" source="I2S81nTjqpgP3ti-CoIY-34" target="I2S81nTjqpgP3ti-CoIY-15" edge="1">
          <mxGeometry relative="1" as="geometry" />
        </mxCell>
        <mxCell id="I2S81nTjqpgP3ti-CoIY-37" value="API Gateway" style="sketch=0;points=[[0,0,0],[0.25,0,0],[0.5,0,0],[0.75,0,0],[1,0,0],[0,1,0],[0.25,1,0],[0.5,1,0],[0.75,1,0],[1,1,0],[0,0.25,0],[0,0.5,0],[0,0.75,0],[1,0.25,0],[1,0.5,0],[1,0.75,0]];outlineConnect=0;fontColor=#232F3E;fillColor=#E7157B;strokeColor=#ffffff;dashed=0;verticalLabelPosition=bottom;verticalAlign=top;align=center;html=1;fontSize=12;fontStyle=0;aspect=fixed;shape=mxgraph.aws4.resourceIcon;resIcon=mxgraph.aws4.api_gateway;" parent="I2S81nTjqpgP3ti-CoIY-6" vertex="1">
          <mxGeometry x="50" y="135" width="82" height="82" as="geometry" />
        </mxCell>
        <mxCell id="I2S81nTjqpgP3ti-CoIY-38" value="" style="edgeStyle=orthogonalEdgeStyle;rounded=0;orthogonalLoop=1;jettySize=auto;html=1;" parent="I2S81nTjqpgP3ti-CoIY-6" source="I2S81nTjqpgP3ti-CoIY-37" target="I2S81nTjqpgP3ti-CoIY-10" edge="1">
          <mxGeometry relative="1" as="geometry" />
        </mxCell>
        <mxCell id="I2S81nTjqpgP3ti-CoIY-39" style="edgeStyle=orthogonalEdgeStyle;rounded=0;orthogonalLoop=1;jettySize=auto;html=1;startArrow=classic;startFill=1;" parent="I2S81nTjqpgP3ti-CoIY-6" source="I2S81nTjqpgP3ti-CoIY-37" target="I2S81nTjqpgP3ti-CoIY-7" edge="1">
          <mxGeometry relative="1" as="geometry" />
        </mxCell>
        <mxCell id="I2S81nTjqpgP3ti-CoIY-40" value="AWS Parameter Store" style="sketch=0;outlineConnect=0;fontColor=#232F3E;gradientColor=none;fillColor=#E7157B;strokeColor=none;dashed=0;verticalLabelPosition=bottom;verticalAlign=top;align=center;html=1;fontSize=12;fontStyle=0;aspect=fixed;pointerEvents=1;shape=mxgraph.aws4.parameter_store;" parent="I2S81nTjqpgP3ti-CoIY-6" vertex="1">
          <mxGeometry x="295.5" y="539" width="75" height="78" as="geometry" />
        </mxCell>
        <mxCell id="I2S81nTjqpgP3ti-CoIY-41" value="Lambda" style="outlineConnect=0;dashed=0;verticalLabelPosition=bottom;verticalAlign=top;align=center;html=1;shape=mxgraph.aws3.lambda_function;fillColor=#F58534;gradientColor=none;" parent="I2S81nTjqpgP3ti-CoIY-6" vertex="1">
          <mxGeometry x="150" y="277" width="69" height="72" as="geometry" />
        </mxCell>
        <mxCell id="I2S81nTjqpgP3ti-CoIY-42" style="edgeStyle=orthogonalEdgeStyle;rounded=0;orthogonalLoop=1;jettySize=auto;html=1;exitX=0.5;exitY=1;exitDx=0;exitDy=0;exitPerimeter=0;entryX=0.5;entryY=0;entryDx=0;entryDy=0;entryPerimeter=0;" parent="I2S81nTjqpgP3ti-CoIY-6" source="DJRc9rYoR8vb2b3hbbMW-5" target="I2S81nTjqpgP3ti-CoIY-41" edge="1">
          <mxGeometry relative="1" as="geometry" />
        </mxCell>
        <mxCell id="I2S81nTjqpgP3ti-CoIY-43" style="edgeStyle=orthogonalEdgeStyle;rounded=0;orthogonalLoop=1;jettySize=auto;html=1;exitX=0.5;exitY=1;exitDx=0;exitDy=0;exitPerimeter=0;entryX=1;entryY=0.5;entryDx=0;entryDy=0;entryPerimeter=0;" parent="I2S81nTjqpgP3ti-CoIY-6" source="I2S81nTjqpgP3ti-CoIY-41" target="I2S81nTjqpgP3ti-CoIY-10" edge="1">
          <mxGeometry relative="1" as="geometry" />
        </mxCell>
        <mxCell id="I2S81nTjqpgP3ti-CoIY-44" value="Orchestrator&amp;nbsp; &amp;nbsp; VPC" style="points=[[0,0],[0.25,0],[0.5,0],[0.75,0],[1,0],[1,0.25],[1,0.5],[1,0.75],[1,1],[0.75,1],[0.5,1],[0.25,1],[0,1],[0,0.75],[0,0.5],[0,0.25]];outlineConnect=0;gradientColor=none;html=1;whiteSpace=wrap;fontSize=12;fontStyle=0;container=1;pointerEvents=0;collapsible=0;recursiveResize=0;shape=mxgraph.aws4.group;grIcon=mxgraph.aws4.group_vpc2;strokeColor=#8C4FFF;fillColor=none;verticalAlign=top;align=left;spacingLeft=30;fontColor=#AAB7B8;dashed=0;" parent="I2S81nTjqpgP3ti-CoIY-6" vertex="1">
          <mxGeometry x="226" y="85.5" width="214" height="384.5" as="geometry" />
        </mxCell>
        <mxCell id="I2S81nTjqpgP3ti-CoIY-45" value="Private subnet" style="points=[[0,0],[0.25,0],[0.5,0],[0.75,0],[1,0],[1,0.25],[1,0.5],[1,0.75],[1,1],[0.75,1],[0.5,1],[0.25,1],[0,1],[0,0.75],[0,0.5],[0,0.25]];outlineConnect=0;gradientColor=none;html=1;whiteSpace=wrap;fontSize=12;fontStyle=0;container=1;pointerEvents=0;collapsible=0;recursiveResize=0;shape=mxgraph.aws4.group;grIcon=mxgraph.aws4.group_security_group;grStroke=0;strokeColor=#00A4A6;fillColor=#E6F6F7;verticalAlign=top;align=left;spacingLeft=30;fontColor=#147EBA;dashed=0;" parent="I2S81nTjqpgP3ti-CoIY-44" vertex="1">
          <mxGeometry x="42" y="203.5" width="130" height="157" as="geometry" />
        </mxCell>
        <mxCell id="I2S81nTjqpgP3ti-CoIY-46" value="" style="sketch=0;points=[[0,0,0],[0.25,0,0],[0.5,0,0],[0.75,0,0],[1,0,0],[0,1,0],[0.25,1,0],[0.5,1,0],[0.75,1,0],[1,1,0],[0,0.25,0],[0,0.5,0],[0,0.75,0],[1,0.25,0],[1,0.5,0],[1,0.75,0]];outlineConnect=0;fontColor=#232F3E;fillColor=#ED7100;strokeColor=#ffffff;dashed=0;verticalLabelPosition=bottom;verticalAlign=top;align=center;html=1;fontSize=12;fontStyle=0;aspect=fixed;shape=mxgraph.aws4.resourceIcon;resIcon=mxgraph.aws4.lambda;" parent="I2S81nTjqpgP3ti-CoIY-45" vertex="1">
          <mxGeometry x="26" y="57" width="78" height="78" as="geometry" />
        </mxCell>
        <mxCell id="I2S81nTjqpgP3ti-CoIY-47" value="Public subnet" style="points=[[0,0],[0.25,0],[0.5,0],[0.75,0],[1,0],[1,0.25],[1,0.5],[1,0.75],[1,1],[0.75,1],[0.5,1],[0.25,1],[0,1],[0,0.75],[0,0.5],[0,0.25]];outlineConnect=0;gradientColor=none;html=1;whiteSpace=wrap;fontSize=12;fontStyle=0;container=1;pointerEvents=0;collapsible=0;recursiveResize=0;shape=mxgraph.aws4.group;grIcon=mxgraph.aws4.group_security_group;grStroke=0;strokeColor=#7AA116;fillColor=#F2F6E8;verticalAlign=top;align=left;spacingLeft=30;fontColor=#248814;dashed=0;" parent="I2S81nTjqpgP3ti-CoIY-44" vertex="1">
          <mxGeometry x="45" y="53.5" width="130" height="130" as="geometry" />
        </mxCell>
        <mxCell id="I2S81nTjqpgP3ti-CoIY-48" value="VPC to VPC NAT" style="sketch=0;outlineConnect=0;fontColor=#232F3E;gradientColor=none;fillColor=#8C4FFF;strokeColor=none;dashed=0;verticalLabelPosition=bottom;verticalAlign=top;align=center;html=1;fontSize=12;fontStyle=0;aspect=fixed;pointerEvents=1;shape=mxgraph.aws4.nat_gateway;" parent="I2S81nTjqpgP3ti-CoIY-47" vertex="1">
          <mxGeometry x="68" y="39.5" width="51" height="51" as="geometry" />
        </mxCell>
        <mxCell id="I2S81nTjqpgP3ti-CoIY-49" style="edgeStyle=orthogonalEdgeStyle;rounded=0;orthogonalLoop=1;jettySize=auto;html=1;" parent="I2S81nTjqpgP3ti-CoIY-6" source="I2S81nTjqpgP3ti-CoIY-7" target="I2S81nTjqpgP3ti-CoIY-46" edge="1">
          <mxGeometry relative="1" as="geometry" />
        </mxCell>
        <mxCell id="I2S81nTjqpgP3ti-CoIY-50" style="edgeStyle=orthogonalEdgeStyle;rounded=0;orthogonalLoop=1;jettySize=auto;html=1;entryX=1;entryY=0;entryDx=0;entryDy=0;entryPerimeter=0;dashed=1;exitX=0.25;exitY=0;exitDx=0;exitDy=0;exitPerimeter=0;" parent="I2S81nTjqpgP3ti-CoIY-6" source="I2S81nTjqpgP3ti-CoIY-46" target="I2S81nTjqpgP3ti-CoIY-37" edge="1">
          <mxGeometry relative="1" as="geometry">
            <Array as="points">
              <mxPoint x="310" y="346" />
              <mxPoint x="310" y="135" />
            </Array>
          </mxGeometry>
        </mxCell>
        <mxCell id="I2S81nTjqpgP3ti-CoIY-51" value="" style="edgeStyle=orthogonalEdgeStyle;rounded=0;orthogonalLoop=1;jettySize=auto;html=1;" parent="I2S81nTjqpgP3ti-CoIY-6" source="I2S81nTjqpgP3ti-CoIY-52" target="I2S81nTjqpgP3ti-CoIY-33" edge="1">
          <mxGeometry relative="1" as="geometry" />
        </mxCell>
        <mxCell id="I2S81nTjqpgP3ti-CoIY-52" value="VPC Interface&lt;div&gt;Endpoint&lt;/div&gt;" style="sketch=0;outlineConnect=0;fontColor=#232F3E;gradientColor=none;fillColor=#8C4FFF;strokeColor=none;dashed=0;verticalLabelPosition=bottom;verticalAlign=top;align=center;html=1;fontSize=12;fontStyle=0;aspect=fixed;pointerEvents=1;shape=mxgraph.aws4.endpoints;" parent="I2S81nTjqpgP3ti-CoIY-6" vertex="1">
          <mxGeometry x="934" y="440" width="50" height="50" as="geometry" />
        </mxCell>
        <mxCell id="I2S81nTjqpgP3ti-CoIY-53" value="VPC Interface&lt;div&gt;Endpoint&lt;/div&gt;" style="sketch=0;outlineConnect=0;fontColor=#232F3E;gradientColor=none;fillColor=#8C4FFF;strokeColor=none;dashed=0;verticalLabelPosition=bottom;verticalAlign=top;align=center;html=1;fontSize=12;fontStyle=0;aspect=fixed;pointerEvents=1;shape=mxgraph.aws4.endpoints;" parent="I2S81nTjqpgP3ti-CoIY-6" vertex="1">
          <mxGeometry x="738.5" y="447" width="50" height="50" as="geometry" />
        </mxCell>
        <mxCell id="I2S81nTjqpgP3ti-CoIY-54" style="edgeStyle=orthogonalEdgeStyle;rounded=0;orthogonalLoop=1;jettySize=auto;html=1;" parent="I2S81nTjqpgP3ti-CoIY-6" source="I2S81nTjqpgP3ti-CoIY-48" target="I2S81nTjqpgP3ti-CoIY-23" edge="1">
          <mxGeometry relative="1" as="geometry">
            <Array as="points">
              <mxPoint x="460" y="204" />
              <mxPoint x="460" y="395" />
            </Array>
          </mxGeometry>
        </mxCell>
        <mxCell id="I2S81nTjqpgP3ti-CoIY-55" value="2" style="rounded=1;whiteSpace=wrap;html=1;fillColor=#007CBD;strokeColor=none;fontColor=#FFFFFF;fontStyle=1;fontSize=22;" parent="I2S81nTjqpgP3ti-CoIY-6" vertex="1">
          <mxGeometry x="-10" y="179" width="40" height="38" as="geometry" />
        </mxCell>
        <mxCell id="I2S81nTjqpgP3ti-CoIY-56" value="10" style="rounded=1;whiteSpace=wrap;html=1;fillColor=#007CBD;strokeColor=none;fontColor=#FFFFFF;fontStyle=1;fontSize=22;" parent="I2S81nTjqpgP3ti-CoIY-6" vertex="1">
          <mxGeometry x="139" y="640.5" width="40" height="38" as="geometry" />
        </mxCell>
        <mxCell id="I2S81nTjqpgP3ti-CoIY-57" style="edgeStyle=orthogonalEdgeStyle;rounded=0;orthogonalLoop=1;jettySize=auto;html=1;entryX=0.5;entryY=1;entryDx=0;entryDy=0;entryPerimeter=0;" parent="I2S81nTjqpgP3ti-CoIY-6" source="I2S81nTjqpgP3ti-CoIY-40" target="I2S81nTjqpgP3ti-CoIY-46" edge="1">
          <mxGeometry relative="1" as="geometry" />
        </mxCell>
        <mxCell id="I2S81nTjqpgP3ti-CoIY-58" value="AWS Config" style="sketch=0;points=[[0,0,0],[0.25,0,0],[0.5,0,0],[0.75,0,0],[1,0,0],[0,1,0],[0.25,1,0],[0.5,1,0],[0.75,1,0],[1,1,0],[0,0.25,0],[0,0.5,0],[0,0.75,0],[1,0.25,0],[1,0.5,0],[1,0.75,0]];points=[[0,0,0],[0.25,0,0],[0.5,0,0],[0.75,0,0],[1,0,0],[0,1,0],[0.25,1,0],[0.5,1,0],[0.75,1,0],[1,1,0],[0,0.25,0],[0,0.5,0],[0,0.75,0],[1,0.25,0],[1,0.5,0],[1,0.75,0]];outlineConnect=0;fontColor=#232F3E;fillColor=#E7157B;strokeColor=#ffffff;dashed=0;verticalLabelPosition=bottom;verticalAlign=top;align=center;html=1;fontSize=12;fontStyle=0;aspect=fixed;shape=mxgraph.aws4.resourceIcon;resIcon=mxgraph.aws4.config;" parent="I2S81nTjqpgP3ti-CoIY-6" vertex="1">
          <mxGeometry x="30" y="687" width="78" height="78" as="geometry" />
        </mxCell>
        <mxCell id="I2S81nTjqpgP3ti-CoIY-59" value="CloudTrail" style="sketch=0;points=[[0,0,0],[0.25,0,0],[0.5,0,0],[0.75,0,0],[1,0,0],[0,1,0],[0.25,1,0],[0.5,1,0],[0.75,1,0],[1,1,0],[0,0.25,0],[0,0.5,0],[0,0.75,0],[1,0.25,0],[1,0.5,0],[1,0.75,0]];points=[[0,0,0],[0.25,0,0],[0.5,0,0],[0.75,0,0],[1,0,0],[0,1,0],[0.25,1,0],[0.5,1,0],[0.75,1,0],[1,1,0],[0,0.25,0],[0,0.5,0],[0,0.75,0],[1,0.25,0],[1,0.5,0],[1,0.75,0]];outlineConnect=0;fontColor=#232F3E;fillColor=#E7157B;strokeColor=#ffffff;dashed=0;verticalLabelPosition=bottom;verticalAlign=top;align=center;html=1;fontSize=12;fontStyle=0;aspect=fixed;shape=mxgraph.aws4.resourceIcon;resIcon=mxgraph.aws4.cloudtrail;" parent="I2S81nTjqpgP3ti-CoIY-6" vertex="1">
          <mxGeometry x="210" y="687" width="78" height="78" as="geometry" />
        </mxCell>
        <mxCell id="I2S81nTjqpgP3ti-CoIY-60" value="OpenSearch&lt;div&gt;Vector DB&lt;/div&gt;" style="sketch=0;outlineConnect=0;fontColor=#232F3E;gradientColor=none;fillColor=#8C4FFF;strokeColor=none;dashed=0;verticalLabelPosition=bottom;verticalAlign=top;align=center;html=1;fontSize=12;fontStyle=0;aspect=fixed;pointerEvents=1;shape=mxgraph.aws4.opensearch_service_data_node;" parent="I2S81nTjqpgP3ti-CoIY-6" vertex="1">
          <mxGeometry x="757" y="559" width="78" height="78" as="geometry" />
        </mxCell>
        <mxCell id="I2S81nTjqpgP3ti-CoIY-61" style="edgeStyle=orthogonalEdgeStyle;rounded=0;orthogonalLoop=1;jettySize=auto;html=1;entryX=0.623;entryY=0.015;entryDx=0;entryDy=0;entryPerimeter=0;" parent="I2S81nTjqpgP3ti-CoIY-6" source="I2S81nTjqpgP3ti-CoIY-53" target="I2S81nTjqpgP3ti-CoIY-35" edge="1">
          <mxGeometry relative="1" as="geometry" />
        </mxCell>
        <mxCell id="DJRc9rYoR8vb2b3hbbMW-6" value="" style="edgeStyle=orthogonalEdgeStyle;rounded=0;orthogonalLoop=1;jettySize=auto;html=1;exitX=1;exitY=0.5;exitDx=0;exitDy=0;exitPerimeter=0;entryX=0.5;entryY=0;entryDx=0;entryDy=0;entryPerimeter=0;" parent="I2S81nTjqpgP3ti-CoIY-6" source="I2S81nTjqpgP3ti-CoIY-37" target="DJRc9rYoR8vb2b3hbbMW-5" edge="1">
          <mxGeometry relative="1" as="geometry">
            <mxPoint x="452" y="377" as="sourcePoint" />
            <mxPoint x="505" y="438" as="targetPoint" />
          </mxGeometry>
        </mxCell>
        <mxCell id="DJRc9rYoR8vb2b3hbbMW-5" value="" style="sketch=0;points=[[0,0,0],[0.25,0,0],[0.5,0,0],[0.75,0,0],[1,0,0],[0,1,0],[0.25,1,0],[0.5,1,0],[0.75,1,0],[1,1,0],[0,0.25,0],[0,0.5,0],[0,0.75,0],[1,0.25,0],[1,0.5,0],[1,0.75,0]];outlineConnect=0;fontColor=#232F3E;fillColor=#C925D1;strokeColor=#ffffff;dashed=0;verticalLabelPosition=bottom;verticalAlign=top;align=center;html=1;fontSize=12;fontStyle=0;aspect=fixed;shape=mxgraph.aws4.resourceIcon;resIcon=mxgraph.aws4.elasticache;" parent="I2S81nTjqpgP3ti-CoIY-6" vertex="1">
          <mxGeometry x="160.5" y="201" width="48" height="48" as="geometry" />
        </mxCell>
        <mxCell id="DJRc9rYoR8vb2b3hbbMW-7" value="ElastiCache" style="text;strokeColor=none;align=center;fillColor=none;html=1;verticalAlign=middle;whiteSpace=wrap;rounded=0;" parent="I2S81nTjqpgP3ti-CoIY-6" vertex="1">
          <mxGeometry x="159" y="247" width="60" height="30" as="geometry" />
        </mxCell>
        <mxCell id="DJRc9rYoR8vb2b3hbbMW-10" value="us-east-1 with SCCs (GDPR)" style="text;strokeColor=none;align=center;fillColor=none;html=1;verticalAlign=middle;whiteSpace=wrap;rounded=0;" parent="I2S81nTjqpgP3ti-CoIY-6" vertex="1">
          <mxGeometry x="477" y="678.5" width="60" height="30" as="geometry" />
        </mxCell>
        <mxCell id="DJRc9rYoR8vb2b3hbbMW-11" value="" style="sketch=0;outlineConnect=0;fontColor=#232F3E;gradientColor=none;fillColor=#DD344C;strokeColor=none;dashed=0;verticalLabelPosition=bottom;verticalAlign=top;align=center;html=1;fontSize=12;fontStyle=0;aspect=fixed;pointerEvents=1;shape=mxgraph.aws4.role;" parent="I2S81nTjqpgP3ti-CoIY-6" vertex="1">
          <mxGeometry x="910" y="721" width="78" height="44" as="geometry" />
        </mxCell>
        <mxCell id="DJRc9rYoR8vb2b3hbbMW-12" value="" style="sketch=0;outlineConnect=0;fontColor=#232F3E;gradientColor=none;fillColor=#7AA116;strokeColor=none;dashed=0;verticalLabelPosition=bottom;verticalAlign=top;align=center;html=1;fontSize=12;fontStyle=0;aspect=fixed;pointerEvents=1;shape=mxgraph.aws4.policy;" parent="I2S81nTjqpgP3ti-CoIY-6" vertex="1">
          <mxGeometry x="1010" y="704.5" width="78" height="67" as="geometry" />
        </mxCell>
        <mxCell id="DJRc9rYoR8vb2b3hbbMW-13" value="IAM Role" style="text;strokeColor=none;align=center;fillColor=none;html=1;verticalAlign=middle;whiteSpace=wrap;rounded=0;" parent="I2S81nTjqpgP3ti-CoIY-6" vertex="1">
          <mxGeometry x="924" y="760" width="60" height="30" as="geometry" />
        </mxCell>
        <mxCell id="PsRS0TMdZz5fYV7ywrA_-1" value="IAM Policy" style="text;strokeColor=none;align=center;fillColor=none;html=1;verticalAlign=middle;whiteSpace=wrap;rounded=0;" vertex="1" parent="I2S81nTjqpgP3ti-CoIY-6">
          <mxGeometry x="1010" y="765" width="60" height="30" as="geometry" />
        </mxCell>
        <mxCell id="I2S81nTjqpgP3ti-CoIY-62" value="AWS WAF" style="sketch=0;points=[[0,0,0],[0.25,0,0],[0.5,0,0],[0.75,0,0],[1,0,0],[0,1,0],[0.25,1,0],[0.5,1,0],[0.75,1,0],[1,1,0],[0,0.25,0],[0,0.5,0],[0,0.75,0],[1,0.25,0],[1,0.5,0],[1,0.75,0]];outlineConnect=0;fontColor=#232F3E;fillColor=#DD344C;strokeColor=#ffffff;dashed=0;verticalLabelPosition=bottom;verticalAlign=top;align=center;html=1;fontSize=12;fontStyle=0;aspect=fixed;shape=mxgraph.aws4.resourceIcon;resIcon=mxgraph.aws4.waf;" parent="I2S81nTjqpgP3ti-CoIY-1" vertex="1">
          <mxGeometry x="80" y="163" width="78" height="78" as="geometry" />
        </mxCell>
        <mxCell id="I2S81nTjqpgP3ti-CoIY-63" style="edgeStyle=orthogonalEdgeStyle;rounded=0;orthogonalLoop=1;jettySize=auto;html=1;entryX=0;entryY=0.5;entryDx=0;entryDy=0;entryPerimeter=0;" parent="I2S81nTjqpgP3ti-CoIY-1" source="I2S81nTjqpgP3ti-CoIY-62" target="I2S81nTjqpgP3ti-CoIY-37" edge="1">
          <mxGeometry relative="1" as="geometry" />
        </mxCell>
        <mxCell id="I2S81nTjqpgP3ti-CoIY-64" value="1" style="rounded=1;whiteSpace=wrap;html=1;fillColor=#007CBD;strokeColor=none;fontColor=#FFFFFF;fontStyle=1;fontSize=22;" parent="I2S81nTjqpgP3ti-CoIY-1" vertex="1">
          <mxGeometry x="30" y="491" width="40" height="38" as="geometry" />
        </mxCell>
        <mxCell id="DJRc9rYoR8vb2b3hbbMW-8" value="us-east-1 with SCCs (GDPR)" style="text;strokeColor=none;align=center;fillColor=none;html=1;verticalAlign=middle;whiteSpace=wrap;rounded=0;" parent="I2S81nTjqpgP3ti-CoIY-1" vertex="1">
          <mxGeometry x="89" y="765" width="60" height="30" as="geometry" />
        </mxCell>
        <mxCell id="I2S81nTjqpgP3ti-CoIY-65" value="Capstone" style="text;html=1;resizable=0;points=[];autosize=1;align=left;verticalAlign=top;spacingTop=-4;fontSize=30;fontStyle=1" parent="1" vertex="1">
          <mxGeometry x="12" y="65.5" width="150" height="40" as="geometry" />
        </mxCell>
        <mxCell id="I2S81nTjqpgP3ti-CoIY-66" value="Group 3" style="text;html=1;resizable=0;points=[];autosize=1;align=left;verticalAlign=top;spacingTop=-4;fontSize=16" parent="1" vertex="1">
          <mxGeometry x="12" y="115.5" width="80" height="30" as="geometry" />
        </mxCell>
        <mxCell id="I2S81nTjqpgP3ti-CoIY-67" value="" style="line;strokeWidth=2;html=1;fontSize=14;" parent="1" vertex="1">
          <mxGeometry x="8" y="140.5" width="1452" height="10" as="geometry" />
        </mxCell>
        <mxCell id="I2S81nTjqpgP3ti-CoIY-68" value="" style="rounded=0;whiteSpace=wrap;html=1;fillColor=#EAEDED;fontSize=22;fontColor=#FFFFFF;strokeColor=none;labelBackgroundColor=none;" parent="1" vertex="1">
          <mxGeometry x="1510" y="175" width="539" height="835" as="geometry" />
        </mxCell>
        <mxCell id="I2S81nTjqpgP3ti-CoIY-69" value="1" style="rounded=1;whiteSpace=wrap;html=1;fillColor=#007CBD;strokeColor=none;fontColor=#FFFFFF;fontStyle=1;fontSize=22;labelBackgroundColor=none;" parent="1" vertex="1">
          <mxGeometry x="1527.5" y="187" width="40" height="38" as="geometry" />
        </mxCell>
        <mxCell id="I2S81nTjqpgP3ti-CoIY-70" value="2" style="rounded=1;whiteSpace=wrap;html=1;fillColor=#007CBD;strokeColor=none;fontColor=#FFFFFF;fontStyle=1;fontSize=22;labelBackgroundColor=none;" parent="1" vertex="1">
          <mxGeometry x="1527" y="240.5" width="40" height="38" as="geometry" />
        </mxCell>
        <mxCell id="I2S81nTjqpgP3ti-CoIY-71" value="3" style="rounded=1;whiteSpace=wrap;html=1;fillColor=#007CBD;strokeColor=none;fontColor=#FFFFFF;fontStyle=1;fontSize=22;labelBackgroundColor=none;" parent="1" vertex="1">
          <mxGeometry x="1527.5" y="331.5" width="40" height="38" as="geometry" />
        </mxCell>
        <mxCell id="I2S81nTjqpgP3ti-CoIY-72" value="4" style="rounded=1;whiteSpace=wrap;html=1;fillColor=#007CBD;strokeColor=none;fontColor=#FFFFFF;fontStyle=1;fontSize=22;labelBackgroundColor=none;" parent="1" vertex="1">
          <mxGeometry x="1527" y="395" width="40" height="38" as="geometry" />
        </mxCell>
        <mxCell id="I2S81nTjqpgP3ti-CoIY-73" value="5" style="rounded=1;whiteSpace=wrap;html=1;fillColor=#007CBD;strokeColor=none;fontColor=#FFFFFF;fontStyle=1;fontSize=22;labelBackgroundColor=none;" parent="1" vertex="1">
          <mxGeometry x="1527" y="555" width="40" height="38" as="geometry" />
        </mxCell>
        <mxCell id="I2S81nTjqpgP3ti-CoIY-74" value="6" style="rounded=1;whiteSpace=wrap;html=1;fillColor=#007CBD;strokeColor=none;fontColor=#FFFFFF;fontStyle=1;fontSize=22;labelBackgroundColor=none;" parent="1" vertex="1">
          <mxGeometry x="1529" y="621.25" width="40" height="38" as="geometry" />
        </mxCell>
        <mxCell id="I2S81nTjqpgP3ti-CoIY-75" value="7" style="rounded=1;whiteSpace=wrap;html=1;fillColor=#007CBD;strokeColor=none;fontColor=#FFFFFF;fontStyle=1;fontSize=22;labelBackgroundColor=none;" parent="1" vertex="1">
          <mxGeometry x="1527.5" y="685" width="40" height="38" as="geometry" />
        </mxCell>
        <mxCell id="I2S81nTjqpgP3ti-CoIY-76" value="8" style="rounded=1;whiteSpace=wrap;html=1;fillColor=#007CBD;strokeColor=none;fontColor=#FFFFFF;fontStyle=1;fontSize=22;labelBackgroundColor=none;" parent="1" vertex="1">
          <mxGeometry x="1527" y="765" width="40" height="38" as="geometry" />
        </mxCell>
        <mxCell id="I2S81nTjqpgP3ti-CoIY-77" value="The web UI, hosted in an S3 bucket, is delivered to users via CloudFront" style="text;html=1;align=left;verticalAlign=top;spacingTop=-4;fontSize=14;labelBackgroundColor=none;whiteSpace=wrap;" parent="1" vertex="1">
          <mxGeometry x="1579" y="186.5" width="449" height="48.5" as="geometry" />
        </mxCell>
        <mxCell id="I2S81nTjqpgP3ti-CoIY-78" value="The web UI utilizes a WebSocket integration built with API Gateway. This API Gateway is supported by a custom Lambda Authorizer function, which returns the appropriate AWS IAM policy based on the Amazon Cognito group to which the user belongs." style="text;html=1;align=left;verticalAlign=top;spacingTop=-4;fontSize=14;labelBackgroundColor=none;whiteSpace=wrap;" parent="1" vertex="1">
          <mxGeometry x="1578" y="241" width="450" height="89" as="geometry" />
        </mxCell>
        <mxCell id="I2S81nTjqpgP3ti-CoIY-79" value="Amazon Cognito handles user authentication for both the CloudFront web UI and the API Gateway." style="text;html=1;align=left;verticalAlign=top;spacingTop=-4;fontSize=14;labelBackgroundColor=none;whiteSpace=wrap;" parent="1" vertex="1">
          <mxGeometry x="1578.5" y="330" width="450" height="50" as="geometry" />
        </mxCell>
        <mxCell id="I2S81nTjqpgP3ti-CoIY-80" value="Incoming requests from business users are routed from the API Gateway to an Amazon SQS queue, and then to the Orchestrator Lambda. The Orchestrator is a collection of Lambda functions and layers that provide the business logic to fulfill user requests. The queue enables asynchronous operation between the API Gateway and the Lambda functions. It passes connection information to the Lambda functions, which then post results directly back to the API Gateway WebSocket connection." style="text;html=1;align=left;verticalAlign=top;spacingTop=-4;fontSize=14;labelBackgroundColor=none;whiteSpace=wrap;" parent="1" vertex="1">
          <mxGeometry x="1578" y="395.5" width="450" height="121" as="geometry" />
        </mxCell>
        <mxCell id="I2S81nTjqpgP3ti-CoIY-81" value="The Orchestrator retrieves the configured LLM options and necessary session information, like chat history, from the Amazon DynamoDB." style="text;html=1;align=left;verticalAlign=top;spacingTop=-4;fontSize=14;labelBackgroundColor=none;whiteSpace=wrap;" parent="1" vertex="1">
          <mxGeometry x="1578.5" y="555.5" width="449" height="59.5" as="geometry" />
        </mxCell>
        <mxCell id="I2S81nTjqpgP3ti-CoIY-82" value="Then, the Orchestrator leverages the Bedrock Knowledgebase. The embeddings are stored in OpenSearch vector engine." style="text;html=1;align=left;verticalAlign=top;spacingTop=-4;fontSize=14;labelBackgroundColor=none;whiteSpace=wrap;" parent="1" vertex="1">
          <mxGeometry x="1580" y="622.75" width="450" height="42.25" as="geometry" />
        </mxCell>
        <mxCell id="I2S81nTjqpgP3ti-CoIY-83" value="The Orchestrator performs redaction of PII and PHI via Amazon Comprehend&amp;nbsp;" style="text;html=1;align=left;verticalAlign=top;spacingTop=-4;fontSize=14;labelBackgroundColor=none;whiteSpace=wrap;" parent="1" vertex="1">
          <mxGeometry x="1579" y="685.5" width="449" height="59.5" as="geometry" />
        </mxCell>
        <mxCell id="I2S81nTjqpgP3ti-CoIY-84" value="Using the chat history, query, and context from the Amazon Bedrock Knowledgebase, the Orchestrator creates the final prompt and sends the request to the LLM hosted on Amazon Bedrock." style="text;html=1;align=left;verticalAlign=top;spacingTop=-4;fontSize=14;labelBackgroundColor=none;whiteSpace=wrap;" parent="1" vertex="1">
          <mxGeometry x="1578.5" y="766.5" width="449" height="124" as="geometry" />
        </mxCell>
        <mxCell id="I2S81nTjqpgP3ti-CoIY-85" value="9" style="rounded=1;whiteSpace=wrap;html=1;fillColor=#007CBD;strokeColor=none;fontColor=#FFFFFF;fontStyle=1;fontSize=22;labelBackgroundColor=none;" parent="1" vertex="1">
          <mxGeometry x="1527" y="845" width="40" height="38" as="geometry" />
        </mxCell>
        <mxCell id="I2S81nTjqpgP3ti-CoIY-86" value="When the response comes back from the LLM, the LangChain Orchestrator streams it back through the API Gateway WebSocket so the client application can consume it." style="text;html=1;align=left;verticalAlign=top;spacingTop=-4;fontSize=14;labelBackgroundColor=none;whiteSpace=wrap;" parent="1" vertex="1">
          <mxGeometry x="1578.5" y="846.5" width="449" height="124" as="geometry" />
        </mxCell>
        <mxCell id="I2S81nTjqpgP3ti-CoIY-87" value="" style="sketch=0;outlineConnect=0;fontColor=#232F3E;gradientColor=none;fillColor=#232F3D;strokeColor=none;dashed=0;verticalLabelPosition=bottom;verticalAlign=top;align=center;html=1;fontSize=12;fontStyle=0;aspect=fixed;pointerEvents=1;shape=mxgraph.aws4.user;" parent="1" vertex="1">
          <mxGeometry x="33" y="507" width="78" height="78" as="geometry" />
        </mxCell>
        <mxCell id="I2S81nTjqpgP3ti-CoIY-88" style="edgeStyle=orthogonalEdgeStyle;rounded=0;orthogonalLoop=1;jettySize=auto;html=1;entryX=0;entryY=0.5;entryDx=0;entryDy=0;entryPerimeter=0;" parent="1" source="I2S81nTjqpgP3ti-CoIY-87" target="I2S81nTjqpgP3ti-CoIY-3" edge="1">
          <mxGeometry relative="1" as="geometry" />
        </mxCell>
        <mxCell id="I2S81nTjqpgP3ti-CoIY-89" value="" style="edgeStyle=orthogonalEdgeStyle;rounded=0;orthogonalLoop=1;jettySize=auto;html=1;entryX=0;entryY=0.5;entryDx=0;entryDy=0;entryPerimeter=0;" parent="1" source="I2S81nTjqpgP3ti-CoIY-87" target="I2S81nTjqpgP3ti-CoIY-62" edge="1">
          <mxGeometry relative="1" as="geometry">
            <mxPoint x="107" y="546" as="sourcePoint" />
            <mxPoint x="444" y="377" as="targetPoint" />
          </mxGeometry>
        </mxCell>
        <mxCell id="I2S81nTjqpgP3ti-CoIY-90" value="10" style="rounded=1;whiteSpace=wrap;html=1;fillColor=#007CBD;strokeColor=none;fontColor=#FFFFFF;fontStyle=1;fontSize=22;labelBackgroundColor=none;" parent="1" vertex="1">
          <mxGeometry x="1527.5" y="925" width="40" height="38" as="geometry" />
        </mxCell>
        <mxCell id="I2S81nTjqpgP3ti-CoIY-91" value="With the help of CloudWatch and CloudTrail, this solution collects operational metrics from various services to generate custom dashboards, allowing us to monitor the deployment&#39;s performance and operational health. AWS Config is configured for compliance monitoring" style="text;html=1;align=left;verticalAlign=top;spacingTop=-4;fontSize=14;labelBackgroundColor=none;whiteSpace=wrap;" parent="1" vertex="1">
          <mxGeometry x="1579" y="926.5" width="449" height="63.5" as="geometry" />
        </mxCell>
      </root>
    </mxGraphModel>
  </diagram>
  <diagram name="Page-2" id="_dNI9bToq_bZNA0XAe6I">
    <mxGraphModel dx="996" dy="569" grid="1" gridSize="10" guides="1" tooltips="1" connect="1" arrows="1" fold="1" page="1" pageScale="1" pageWidth="850" pageHeight="1100" math="0" shadow="0">
      <root>
        <mxCell id="0" />
        <mxCell id="1" parent="0" />
        <mxCell id="2rGjP0xVIvrKG3m451El-6" value="" style="edgeStyle=orthogonalEdgeStyle;rounded=0;orthogonalLoop=1;jettySize=auto;html=1;" edge="1" parent="1" source="2rGjP0xVIvrKG3m451El-1" target="2rGjP0xVIvrKG3m451El-2">
          <mxGeometry relative="1" as="geometry" />
        </mxCell>
        <mxCell id="2rGjP0xVIvrKG3m451El-7" value="Python" style="edgeLabel;html=1;align=center;verticalAlign=middle;resizable=0;points=[];" vertex="1" connectable="0" parent="2rGjP0xVIvrKG3m451El-6">
          <mxGeometry x="-0.0233" y="2" relative="1" as="geometry">
            <mxPoint y="1" as="offset" />
          </mxGeometry>
        </mxCell>
        <mxCell id="2rGjP0xVIvrKG3m451El-1" value="Developer" style="sketch=0;outlineConnect=0;fontColor=#232F3E;gradientColor=none;fillColor=#232F3D;strokeColor=none;dashed=0;verticalLabelPosition=bottom;verticalAlign=top;align=center;html=1;fontSize=12;fontStyle=0;aspect=fixed;pointerEvents=1;shape=mxgraph.aws4.user;" vertex="1" parent="1">
          <mxGeometry x="90" y="563.5" width="78" height="78" as="geometry" />
        </mxCell>
        <mxCell id="2rGjP0xVIvrKG3m451El-8" value="" style="edgeStyle=orthogonalEdgeStyle;rounded=0;orthogonalLoop=1;jettySize=auto;html=1;" edge="1" parent="1" source="2rGjP0xVIvrKG3m451El-2" target="2rGjP0xVIvrKG3m451El-3">
          <mxGeometry relative="1" as="geometry" />
        </mxCell>
        <mxCell id="2rGjP0xVIvrKG3m451El-2" value="GitHub" style="shape=image;html=1;verticalAlign=top;verticalLabelPosition=bottom;labelBackgroundColor=#ffffff;imageAspect=0;aspect=fixed;image=https://cdn4.iconfinder.com/data/icons/ionicons/512/icon-social-github-128.png" vertex="1" parent="1">
          <mxGeometry x="270" y="555" width="95" height="95" as="geometry" />
        </mxCell>
        <mxCell id="xCzfFOX-EjrEe841r4Vf-7" value="" style="edgeStyle=orthogonalEdgeStyle;rounded=0;orthogonalLoop=1;jettySize=auto;html=1;" edge="1" parent="1" source="2rGjP0xVIvrKG3m451El-3" target="xCzfFOX-EjrEe841r4Vf-5">
          <mxGeometry relative="1" as="geometry" />
        </mxCell>
        <mxCell id="2rGjP0xVIvrKG3m451El-3" value="CodeBuild" style="sketch=0;points=[[0,0,0],[0.25,0,0],[0.5,0,0],[0.75,0,0],[1,0,0],[0,1,0],[0.25,1,0],[0.5,1,0],[0.75,1,0],[1,1,0],[0,0.25,0],[0,0.5,0],[0,0.75,0],[1,0.25,0],[1,0.5,0],[1,0.75,0]];outlineConnect=0;fontColor=#232F3E;fillColor=#C925D1;strokeColor=#ffffff;dashed=0;verticalLabelPosition=bottom;verticalAlign=top;align=center;html=1;fontSize=12;fontStyle=0;aspect=fixed;shape=mxgraph.aws4.resourceIcon;resIcon=mxgraph.aws4.codebuild;" vertex="1" parent="1">
          <mxGeometry x="482" y="563.5" width="78" height="78" as="geometry" />
        </mxCell>
        <mxCell id="2rGjP0xVIvrKG3m451El-9" value="" style="edgeStyle=orthogonalEdgeStyle;rounded=0;orthogonalLoop=1;jettySize=auto;html=1;" edge="1" parent="1" source="2rGjP0xVIvrKG3m451El-4" target="2rGjP0xVIvrKG3m451El-3">
          <mxGeometry relative="1" as="geometry" />
        </mxCell>
        <mxCell id="2rGjP0xVIvrKG3m451El-11" value="AWS Cloud" style="points=[[0,0],[0.25,0],[0.5,0],[0.75,0],[1,0],[1,0.25],[1,0.5],[1,0.75],[1,1],[0.75,1],[0.5,1],[0.25,1],[0,1],[0,0.75],[0,0.5],[0,0.25]];outlineConnect=0;gradientColor=none;html=1;whiteSpace=wrap;fontSize=12;fontStyle=0;container=1;pointerEvents=0;collapsible=0;recursiveResize=0;shape=mxgraph.aws4.group;grIcon=mxgraph.aws4.group_aws_cloud_alt;strokeColor=#232F3E;fillColor=none;verticalAlign=top;align=left;spacingLeft=30;fontColor=#232F3E;dashed=0;" vertex="1" parent="1">
          <mxGeometry x="400" y="380" width="610" height="450" as="geometry" />
        </mxCell>
        <mxCell id="2rGjP0xVIvrKG3m451El-5" value="Lambda Orchestrator" style="sketch=0;points=[[0,0,0],[0.25,0,0],[0.5,0,0],[0.75,0,0],[1,0,0],[0,1,0],[0.25,1,0],[0.5,1,0],[0.75,1,0],[1,1,0],[0,0.25,0],[0,0.5,0],[0,0.75,0],[1,0.25,0],[1,0.5,0],[1,0.75,0]];outlineConnect=0;fontColor=#232F3E;fillColor=#ED7100;strokeColor=#ffffff;dashed=0;verticalLabelPosition=bottom;verticalAlign=top;align=center;html=1;fontSize=12;fontStyle=0;aspect=fixed;shape=mxgraph.aws4.resourceIcon;resIcon=mxgraph.aws4.lambda;" vertex="1" parent="2rGjP0xVIvrKG3m451El-11">
          <mxGeometry x="480" y="183.5" width="78" height="78" as="geometry" />
        </mxCell>
        <mxCell id="xCzfFOX-EjrEe841r4Vf-2" value="CodeDeploy" style="sketch=0;points=[[0,0,0],[0.25,0,0],[0.5,0,0],[0.75,0,0],[1,0,0],[0,1,0],[0.25,1,0],[0.5,1,0],[0.75,1,0],[1,1,0],[0,0.25,0],[0,0.5,0],[0,0.75,0],[1,0.25,0],[1,0.5,0],[1,0.75,0]];outlineConnect=0;fontColor=#232F3E;fillColor=#C925D1;strokeColor=#ffffff;dashed=0;verticalLabelPosition=bottom;verticalAlign=top;align=center;html=1;fontSize=12;fontStyle=0;aspect=fixed;shape=mxgraph.aws4.resourceIcon;resIcon=mxgraph.aws4.codedeploy;" vertex="1" parent="2rGjP0xVIvrKG3m451El-11">
          <mxGeometry x="270" y="183.5" width="78" height="78" as="geometry" />
        </mxCell>
        <mxCell id="2rGjP0xVIvrKG3m451El-10" value="" style="edgeStyle=orthogonalEdgeStyle;rounded=0;orthogonalLoop=1;jettySize=auto;html=1;" edge="1" parent="2rGjP0xVIvrKG3m451El-11" source="xCzfFOX-EjrEe841r4Vf-2" target="2rGjP0xVIvrKG3m451El-5">
          <mxGeometry relative="1" as="geometry" />
        </mxCell>
        <mxCell id="xCzfFOX-EjrEe841r4Vf-5" value="CodeArtifact" style="sketch=0;points=[[0,0,0],[0.25,0,0],[0.5,0,0],[0.75,0,0],[1,0,0],[0,1,0],[0.25,1,0],[0.5,1,0],[0.75,1,0],[1,1,0],[0,0.25,0],[0,0.5,0],[0,0.75,0],[1,0.25,0],[1,0.5,0],[1,0.75,0]];outlineConnect=0;fontColor=#232F3E;fillColor=#C925D1;strokeColor=#ffffff;dashed=0;verticalLabelPosition=bottom;verticalAlign=top;align=center;html=1;fontSize=12;fontStyle=0;aspect=fixed;shape=mxgraph.aws4.resourceIcon;resIcon=mxgraph.aws4.codeartifact;" vertex="1" parent="2rGjP0xVIvrKG3m451El-11">
          <mxGeometry x="82" y="310" width="78" height="78" as="geometry" />
        </mxCell>
        <mxCell id="2rGjP0xVIvrKG3m451El-4" value="IAM" style="outlineConnect=0;dashed=0;verticalLabelPosition=bottom;verticalAlign=top;align=center;html=1;shape=mxgraph.aws3.iam;fillColor=#759C3E;gradientColor=none;" vertex="1" parent="2rGjP0xVIvrKG3m451El-11">
          <mxGeometry x="100" y="10" width="42" height="81" as="geometry" />
        </mxCell>
        <mxCell id="7CIULHmsK-ulkGuzzlul-1" value="" style="fillColor=none;strokeColor=#5A6C86;dashed=1;verticalAlign=top;fontStyle=0;fontColor=#5A6C86;whiteSpace=wrap;html=1;" vertex="1" parent="2rGjP0xVIvrKG3m451El-11">
          <mxGeometry x="40" y="120" width="380" height="170" as="geometry" />
        </mxCell>
        <mxCell id="xCzfFOX-EjrEe841r4Vf-8" value="CodePipeline" style="sketch=0;points=[[0,0,0],[0.25,0,0],[0.5,0,0],[0.75,0,0],[1,0,0],[0,1,0],[0.25,1,0],[0.5,1,0],[0.75,1,0],[1,1,0],[0,0.25,0],[0,0.5,0],[0,0.75,0],[1,0.25,0],[1,0.5,0],[1,0.75,0]];outlineConnect=0;fontColor=#232F3E;fillColor=#C925D1;strokeColor=#ffffff;dashed=0;verticalLabelPosition=bottom;verticalAlign=top;align=center;html=1;fontSize=12;fontStyle=0;aspect=fixed;shape=mxgraph.aws4.resourceIcon;resIcon=mxgraph.aws4.codepipeline;" vertex="1" parent="2rGjP0xVIvrKG3m451El-11">
          <mxGeometry x="192" y="80" width="78" height="78" as="geometry" />
        </mxCell>
        <mxCell id="xCzfFOX-EjrEe841r4Vf-3" value="" style="edgeStyle=orthogonalEdgeStyle;rounded=0;orthogonalLoop=1;jettySize=auto;html=1;" edge="1" parent="1" source="2rGjP0xVIvrKG3m451El-3" target="xCzfFOX-EjrEe841r4Vf-2">
          <mxGeometry relative="1" as="geometry">
            <mxPoint x="560" y="603" as="sourcePoint" />
            <mxPoint x="660" y="603" as="targetPoint" />
          </mxGeometry>
        </mxCell>
      </root>
    </mxGraphModel>
  </diagram>
  <diagram name="Page-3" id="kTxRKtPf4lO0ctTDiLDT">
    <mxGraphModel dx="2213" dy="1264" grid="1" gridSize="10" guides="1" tooltips="1" connect="1" arrows="1" fold="1" page="1" pageScale="1" pageWidth="850" pageHeight="1100" math="0" shadow="0">
      <root>
        <mxCell id="0" />
        <mxCell id="1" parent="0" />
        <mxCell id="O4ym9vWu2uvGQRPtnUVD-1" value="AWS Cloud" style="points=[[0,0],[0.25,0],[0.5,0],[0.75,0],[1,0],[1,0.25],[1,0.5],[1,0.75],[1,1],[0.75,1],[0.5,1],[0.25,1],[0,1],[0,0.75],[0,0.5],[0,0.25]];outlineConnect=0;gradientColor=none;html=1;whiteSpace=wrap;fontSize=12;fontStyle=0;shape=mxgraph.aws4.group;grIcon=mxgraph.aws4.group_aws_cloud_alt;strokeColor=#232F3E;fillColor=none;verticalAlign=top;align=left;spacingLeft=30;fontColor=#232F3E;dashed=0;container=1;pointerEvents=0;collapsible=0;recursiveResize=0;" vertex="1" parent="1">
          <mxGeometry x="140" y="175" width="1320" height="835" as="geometry" />
        </mxCell>
        <mxCell id="O4ym9vWu2uvGQRPtnUVD-2" value="" style="edgeStyle=orthogonalEdgeStyle;rounded=0;orthogonalLoop=1;jettySize=auto;html=1;" edge="1" parent="O4ym9vWu2uvGQRPtnUVD-1" source="O4ym9vWu2uvGQRPtnUVD-3" target="O4ym9vWu2uvGQRPtnUVD-4">
          <mxGeometry relative="1" as="geometry" />
        </mxCell>
        <mxCell id="O4ym9vWu2uvGQRPtnUVD-3" value="Cloudfront" style="sketch=0;points=[[0,0,0],[0.25,0,0],[0.5,0,0],[0.75,0,0],[1,0,0],[0,1,0],[0.25,1,0],[0.5,1,0],[0.75,1,0],[1,1,0],[0,0.25,0],[0,0.5,0],[0,0.75,0],[1,0.25,0],[1,0.5,0],[1,0.75,0]];outlineConnect=0;fontColor=#232F3E;fillColor=#8C4FFF;strokeColor=#ffffff;dashed=0;verticalLabelPosition=bottom;verticalAlign=top;align=center;html=1;fontSize=12;fontStyle=0;aspect=fixed;shape=mxgraph.aws4.resourceIcon;resIcon=mxgraph.aws4.cloudfront;" vertex="1" parent="O4ym9vWu2uvGQRPtnUVD-1">
          <mxGeometry x="80" y="491" width="78" height="78" as="geometry" />
        </mxCell>
        <mxCell id="O4ym9vWu2uvGQRPtnUVD-4" value="Amazon S3" style="sketch=0;points=[[0,0,0],[0.25,0,0],[0.5,0,0],[0.75,0,0],[1,0,0],[0,1,0],[0.25,1,0],[0.5,1,0],[0.75,1,0],[1,1,0],[0,0.25,0],[0,0.5,0],[0,0.75,0],[1,0.25,0],[1,0.5,0],[1,0.75,0]];outlineConnect=0;fontColor=#232F3E;fillColor=#7AA116;strokeColor=#ffffff;dashed=0;verticalLabelPosition=bottom;verticalAlign=top;align=center;html=1;fontSize=12;fontStyle=0;aspect=fixed;shape=mxgraph.aws4.resourceIcon;resIcon=mxgraph.aws4.s3;" vertex="1" parent="O4ym9vWu2uvGQRPtnUVD-1">
          <mxGeometry x="80" y="655" width="78" height="78" as="geometry" />
        </mxCell>
        <mxCell id="O4ym9vWu2uvGQRPtnUVD-5" style="edgeStyle=orthogonalEdgeStyle;rounded=0;orthogonalLoop=1;jettySize=auto;html=1;exitX=1;exitY=0.5;exitDx=0;exitDy=0;exitPerimeter=0;entryX=0.5;entryY=1;entryDx=0;entryDy=0;entryPerimeter=0;" edge="1" parent="O4ym9vWu2uvGQRPtnUVD-1" source="O4ym9vWu2uvGQRPtnUVD-3" target="O4ym9vWu2uvGQRPtnUVD-10">
          <mxGeometry relative="1" as="geometry" />
        </mxCell>
        <mxCell id="O4ym9vWu2uvGQRPtnUVD-6" value="Region" style="points=[[0,0],[0.25,0],[0.5,0],[0.75,0],[1,0],[1,0.25],[1,0.5],[1,0.75],[1,1],[0.75,1],[0.5,1],[0.25,1],[0,1],[0,0.75],[0,0.5],[0,0.25]];outlineConnect=0;gradientColor=none;html=1;whiteSpace=wrap;fontSize=12;fontStyle=0;container=1;pointerEvents=0;collapsible=0;recursiveResize=0;shape=mxgraph.aws4.group;grIcon=mxgraph.aws4.group_region;strokeColor=#00A4A6;fillColor=none;verticalAlign=top;align=left;spacingLeft=30;fontColor=#147EBA;dashed=1;" vertex="1" parent="O4ym9vWu2uvGQRPtnUVD-1">
          <mxGeometry x="180" y="26" width="1110" height="790" as="geometry" />
        </mxCell>
        <mxCell id="O4ym9vWu2uvGQRPtnUVD-7" value="SQS FIFO Queue" style="sketch=0;outlineConnect=0;fontColor=#232F3E;gradientColor=none;fillColor=#E7157B;strokeColor=none;dashed=0;verticalLabelPosition=bottom;verticalAlign=top;align=center;html=1;fontSize=12;fontStyle=0;aspect=fixed;pointerEvents=1;shape=mxgraph.aws4.queue;" vertex="1" parent="O4ym9vWu2uvGQRPtnUVD-6">
          <mxGeometry x="96" y="29" width="78" height="47" as="geometry" />
        </mxCell>
        <mxCell id="O4ym9vWu2uvGQRPtnUVD-8" value="3" style="rounded=1;whiteSpace=wrap;html=1;fillColor=#007CBD;strokeColor=none;fontColor=#FFFFFF;fontStyle=1;fontSize=22;" vertex="1" parent="O4ym9vWu2uvGQRPtnUVD-6">
          <mxGeometry x="10" y="389" width="40" height="38" as="geometry" />
        </mxCell>
        <mxCell id="O4ym9vWu2uvGQRPtnUVD-9" value="4" style="rounded=1;whiteSpace=wrap;html=1;fillColor=#007CBD;strokeColor=none;fontColor=#FFFFFF;fontStyle=1;fontSize=22;" vertex="1" parent="O4ym9vWu2uvGQRPtnUVD-6">
          <mxGeometry x="270" y="9" width="40" height="38" as="geometry" />
        </mxCell>
        <mxCell id="O4ym9vWu2uvGQRPtnUVD-10" value="Cognito" style="sketch=0;points=[[0,0,0],[0.25,0,0],[0.5,0,0],[0.75,0,0],[1,0,0],[0,1,0],[0.25,1,0],[0.5,1,0],[0.75,1,0],[1,1,0],[0,0.25,0],[0,0.5,0],[0,0.75,0],[1,0.25,0],[1,0.5,0],[1,0.75,0]];outlineConnect=0;fontColor=#232F3E;fillColor=#DD344C;strokeColor=#ffffff;dashed=0;verticalLabelPosition=bottom;verticalAlign=top;align=center;html=1;fontSize=12;fontStyle=0;aspect=fixed;shape=mxgraph.aws4.resourceIcon;resIcon=mxgraph.aws4.cognito;" vertex="1" parent="O4ym9vWu2uvGQRPtnUVD-6">
          <mxGeometry x="52" y="369" width="78" height="78" as="geometry" />
        </mxCell>
        <mxCell id="O4ym9vWu2uvGQRPtnUVD-11" value="5" style="rounded=1;whiteSpace=wrap;html=1;fillColor=#007CBD;strokeColor=none;fontColor=#FFFFFF;fontStyle=1;fontSize=22;" vertex="1" parent="O4ym9vWu2uvGQRPtnUVD-6">
          <mxGeometry x="430" y="521" width="40" height="38" as="geometry" />
        </mxCell>
        <mxCell id="O4ym9vWu2uvGQRPtnUVD-12" value="6" style="rounded=1;whiteSpace=wrap;html=1;fillColor=#007CBD;strokeColor=none;fontColor=#FFFFFF;fontStyle=1;fontSize=22;" vertex="1" parent="O4ym9vWu2uvGQRPtnUVD-6">
          <mxGeometry x="610.5" y="584.5" width="40" height="38" as="geometry" />
        </mxCell>
        <mxCell id="O4ym9vWu2uvGQRPtnUVD-13" value="8" style="rounded=1;whiteSpace=wrap;html=1;fillColor=#007CBD;strokeColor=none;fontColor=#FFFFFF;fontStyle=1;fontSize=22;" vertex="1" parent="O4ym9vWu2uvGQRPtnUVD-6">
          <mxGeometry x="610.5" y="704.5" width="40" height="38" as="geometry" />
        </mxCell>
        <mxCell id="O4ym9vWu2uvGQRPtnUVD-14" value="9" style="rounded=1;whiteSpace=wrap;html=1;fillColor=#007CBD;strokeColor=none;fontColor=#FFFFFF;fontStyle=1;fontSize=22;" vertex="1" parent="O4ym9vWu2uvGQRPtnUVD-6">
          <mxGeometry x="179" y="135" width="40" height="38" as="geometry" />
        </mxCell>
        <mxCell id="O4ym9vWu2uvGQRPtnUVD-15" value="DynamoDB" style="sketch=0;points=[[0,0,0],[0.25,0,0],[0.5,0,0],[0.75,0,0],[1,0,0],[0,1,0],[0.25,1,0],[0.5,1,0],[0.75,1,0],[1,1,0],[0,0.25,0],[0,0.5,0],[0,0.75,0],[1,0.25,0],[1,0.5,0],[1,0.75,0]];outlineConnect=0;fontColor=#232F3E;fillColor=#C925D1;strokeColor=#ffffff;dashed=0;verticalLabelPosition=bottom;verticalAlign=top;align=center;html=1;fontSize=12;fontStyle=0;aspect=fixed;shape=mxgraph.aws4.resourceIcon;resIcon=mxgraph.aws4.dynamodb;" vertex="1" parent="O4ym9vWu2uvGQRPtnUVD-6">
          <mxGeometry x="466" y="569" width="78" height="78" as="geometry" />
        </mxCell>
        <mxCell id="O4ym9vWu2uvGQRPtnUVD-16" value="Amazon Bedrock" style="sketch=0;points=[[0,0,0],[0.25,0,0],[0.5,0,0],[0.75,0,0],[1,0,0],[0,1,0],[0.25,1,0],[0.5,1,0],[0.75,1,0],[1,1,0],[0,0.25,0],[0,0.5,0],[0,0.75,0],[1,0.25,0],[1,0.5,0],[1,0.75,0]];outlineConnect=0;fontColor=#232F3E;fillColor=#01A88D;strokeColor=#ffffff;dashed=0;verticalLabelPosition=bottom;verticalAlign=top;align=center;html=1;fontSize=12;fontStyle=0;aspect=fixed;shape=mxgraph.aws4.resourceIcon;resIcon=mxgraph.aws4.bedrock;" vertex="1" parent="O4ym9vWu2uvGQRPtnUVD-6">
          <mxGeometry x="660.5" y="678.5" width="78" height="78" as="geometry" />
        </mxCell>
        <mxCell id="O4ym9vWu2uvGQRPtnUVD-17" value="&lt;span style=&quot;background-color: initial;&quot;&gt;Bedrock&lt;/span&gt;&lt;div&gt;&lt;span style=&quot;background-color: initial;&quot;&gt;Knowledge Base&lt;/span&gt;&lt;/div&gt;" style="sketch=0;points=[[0,0,0],[0.25,0,0],[0.5,0,0],[0.75,0,0],[1,0,0],[0,1,0],[0.25,1,0],[0.5,1,0],[0.75,1,0],[1,1,0],[0,0.25,0],[0,0.5,0],[0,0.75,0],[1,0.25,0],[1,0.5,0],[1,0.75,0]];outlineConnect=0;fontColor=#232F3E;fillColor=#01A88D;strokeColor=#ffffff;dashed=0;verticalLabelPosition=bottom;verticalAlign=top;align=center;html=1;fontSize=12;fontStyle=0;aspect=fixed;shape=mxgraph.aws4.resourceIcon;resIcon=mxgraph.aws4.bedrock;" vertex="1" parent="O4ym9vWu2uvGQRPtnUVD-6">
          <mxGeometry x="660.5" y="556.5" width="78" height="78" as="geometry" />
        </mxCell>
        <mxCell id="O4ym9vWu2uvGQRPtnUVD-18" value="7" style="rounded=1;whiteSpace=wrap;html=1;fillColor=#007CBD;strokeColor=none;fontColor=#FFFFFF;fontStyle=1;fontSize=22;" vertex="1" parent="O4ym9vWu2uvGQRPtnUVD-6">
          <mxGeometry x="870" y="577" width="40" height="38" as="geometry" />
        </mxCell>
        <mxCell id="O4ym9vWu2uvGQRPtnUVD-19" value="Availability Zone" style="fillColor=none;strokeColor=#147EBA;dashed=1;verticalAlign=top;fontStyle=0;fontColor=#147EBA;whiteSpace=wrap;html=1;" vertex="1" parent="O4ym9vWu2uvGQRPtnUVD-6">
          <mxGeometry x="540" y="39" width="180" height="451" as="geometry" />
        </mxCell>
        <mxCell id="O4ym9vWu2uvGQRPtnUVD-20" value="Public subnet" style="points=[[0,0],[0.25,0],[0.5,0],[0.75,0],[1,0],[1,0.25],[1,0.5],[1,0.75],[1,1],[0.75,1],[0.5,1],[0.25,1],[0,1],[0,0.75],[0,0.5],[0,0.25]];outlineConnect=0;gradientColor=none;html=1;whiteSpace=wrap;fontSize=12;fontStyle=0;container=1;pointerEvents=0;collapsible=0;recursiveResize=0;shape=mxgraph.aws4.group;grIcon=mxgraph.aws4.group_security_group;grStroke=0;strokeColor=#7AA116;fillColor=#F2F6E8;verticalAlign=top;align=left;spacingLeft=30;fontColor=#248814;dashed=0;" vertex="1" parent="O4ym9vWu2uvGQRPtnUVD-6">
          <mxGeometry x="565" y="119" width="130" height="130" as="geometry" />
        </mxCell>
        <mxCell id="O4ym9vWu2uvGQRPtnUVD-21" value="NAT" style="sketch=0;outlineConnect=0;fontColor=#232F3E;gradientColor=none;fillColor=#8C4FFF;strokeColor=none;dashed=0;verticalLabelPosition=bottom;verticalAlign=top;align=center;html=1;fontSize=12;fontStyle=0;aspect=fixed;pointerEvents=1;shape=mxgraph.aws4.nat_gateway;" vertex="1" parent="O4ym9vWu2uvGQRPtnUVD-20">
          <mxGeometry x="39.5" y="39.5" width="51" height="51" as="geometry" />
        </mxCell>
        <mxCell id="O4ym9vWu2uvGQRPtnUVD-22" value="Private subnet" style="points=[[0,0],[0.25,0],[0.5,0],[0.75,0],[1,0],[1,0.25],[1,0.5],[1,0.75],[1,1],[0.75,1],[0.5,1],[0.25,1],[0,1],[0,0.75],[0,0.5],[0,0.25]];outlineConnect=0;gradientColor=none;html=1;whiteSpace=wrap;fontSize=12;fontStyle=0;container=1;pointerEvents=0;collapsible=0;recursiveResize=0;shape=mxgraph.aws4.group;grIcon=mxgraph.aws4.group_security_group;grStroke=0;strokeColor=#00A4A6;fillColor=#E6F6F7;verticalAlign=top;align=left;spacingLeft=30;fontColor=#147EBA;dashed=0;" vertex="1" parent="O4ym9vWu2uvGQRPtnUVD-6">
          <mxGeometry x="565" y="327" width="130" height="130" as="geometry" />
        </mxCell>
        <mxCell id="O4ym9vWu2uvGQRPtnUVD-23" value="ENI" style="sketch=0;outlineConnect=0;fontColor=#232F3E;gradientColor=none;fillColor=#8C4FFF;strokeColor=none;dashed=0;verticalLabelPosition=bottom;verticalAlign=top;align=center;html=1;fontSize=12;fontStyle=0;aspect=fixed;pointerEvents=1;shape=mxgraph.aws4.elastic_network_interface;" vertex="1" parent="O4ym9vWu2uvGQRPtnUVD-22">
          <mxGeometry x="39.5" y="42" width="51" height="51" as="geometry" />
        </mxCell>
        <mxCell id="O4ym9vWu2uvGQRPtnUVD-24" value="Availability Zone" style="fillColor=none;strokeColor=#147EBA;dashed=1;verticalAlign=top;fontStyle=0;fontColor=#147EBA;whiteSpace=wrap;html=1;" vertex="1" parent="O4ym9vWu2uvGQRPtnUVD-6">
          <mxGeometry x="810" y="39" width="180" height="451" as="geometry" />
        </mxCell>
        <mxCell id="O4ym9vWu2uvGQRPtnUVD-25" value="Public subnet" style="points=[[0,0],[0.25,0],[0.5,0],[0.75,0],[1,0],[1,0.25],[1,0.5],[1,0.75],[1,1],[0.75,1],[0.5,1],[0.25,1],[0,1],[0,0.75],[0,0.5],[0,0.25]];outlineConnect=0;gradientColor=none;html=1;whiteSpace=wrap;fontSize=12;fontStyle=0;container=1;pointerEvents=0;collapsible=0;recursiveResize=0;shape=mxgraph.aws4.group;grIcon=mxgraph.aws4.group_security_group;grStroke=0;strokeColor=#7AA116;fillColor=#F2F6E8;verticalAlign=top;align=left;spacingLeft=30;fontColor=#248814;dashed=0;" vertex="1" parent="O4ym9vWu2uvGQRPtnUVD-6">
          <mxGeometry x="835" y="119" width="130" height="130" as="geometry" />
        </mxCell>
        <mxCell id="O4ym9vWu2uvGQRPtnUVD-26" value="NAT" style="sketch=0;outlineConnect=0;fontColor=#232F3E;gradientColor=none;fillColor=#8C4FFF;strokeColor=none;dashed=0;verticalLabelPosition=bottom;verticalAlign=top;align=center;html=1;fontSize=12;fontStyle=0;aspect=fixed;pointerEvents=1;shape=mxgraph.aws4.nat_gateway;" vertex="1" parent="O4ym9vWu2uvGQRPtnUVD-25">
          <mxGeometry x="39.5" y="39.5" width="51" height="51" as="geometry" />
        </mxCell>
        <mxCell id="O4ym9vWu2uvGQRPtnUVD-27" value="Private subnet" style="points=[[0,0],[0.25,0],[0.5,0],[0.75,0],[1,0],[1,0.25],[1,0.5],[1,0.75],[1,1],[0.75,1],[0.5,1],[0.25,1],[0,1],[0,0.75],[0,0.5],[0,0.25]];outlineConnect=0;gradientColor=none;html=1;whiteSpace=wrap;fontSize=12;fontStyle=0;container=1;pointerEvents=0;collapsible=0;recursiveResize=0;shape=mxgraph.aws4.group;grIcon=mxgraph.aws4.group_security_group;grStroke=0;strokeColor=#00A4A6;fillColor=#E6F6F7;verticalAlign=top;align=left;spacingLeft=30;fontColor=#147EBA;dashed=0;" vertex="1" parent="O4ym9vWu2uvGQRPtnUVD-6">
          <mxGeometry x="835" y="327" width="130" height="130" as="geometry" />
        </mxCell>
        <mxCell id="O4ym9vWu2uvGQRPtnUVD-28" value="ENI" style="sketch=0;outlineConnect=0;fontColor=#232F3E;gradientColor=none;fillColor=#8C4FFF;strokeColor=none;dashed=0;verticalLabelPosition=bottom;verticalAlign=top;align=center;html=1;fontSize=12;fontStyle=0;aspect=fixed;pointerEvents=1;shape=mxgraph.aws4.elastic_network_interface;" vertex="1" parent="O4ym9vWu2uvGQRPtnUVD-27">
          <mxGeometry x="39.5" y="42" width="51" height="51" as="geometry" />
        </mxCell>
        <mxCell id="O4ym9vWu2uvGQRPtnUVD-29" value="VPC" style="points=[[0,0],[0.25,0],[0.5,0],[0.75,0],[1,0],[1,0.25],[1,0.5],[1,0.75],[1,1],[0.75,1],[0.5,1],[0.25,1],[0,1],[0,0.75],[0,0.5],[0,0.25]];outlineConnect=0;gradientColor=none;html=1;whiteSpace=wrap;fontSize=12;fontStyle=0;container=1;pointerEvents=0;collapsible=0;recursiveResize=0;shape=mxgraph.aws4.group;grIcon=mxgraph.aws4.group_vpc2;strokeColor=#8C4FFF;fillColor=none;verticalAlign=top;align=left;spacingLeft=30;fontColor=#AAB7B8;dashed=0;" vertex="1" parent="O4ym9vWu2uvGQRPtnUVD-6">
          <mxGeometry x="477" y="84" width="573" height="386" as="geometry" />
        </mxCell>
        <mxCell id="O4ym9vWu2uvGQRPtnUVD-30" value="Router" style="sketch=0;outlineConnect=0;fontColor=#232F3E;gradientColor=none;fillColor=#8C4FFF;strokeColor=none;dashed=0;verticalLabelPosition=bottom;verticalAlign=top;align=center;html=1;fontSize=12;fontStyle=0;aspect=fixed;pointerEvents=1;shape=mxgraph.aws4.customer_gateway;" vertex="1" parent="O4ym9vWu2uvGQRPtnUVD-29">
          <mxGeometry x="263" y="165" width="55" height="55" as="geometry" />
        </mxCell>
        <mxCell id="O4ym9vWu2uvGQRPtnUVD-31" value="Internet Gateway" style="sketch=0;outlineConnect=0;fontColor=#232F3E;gradientColor=none;fillColor=#8C4FFF;strokeColor=none;dashed=0;verticalLabelPosition=bottom;verticalAlign=top;align=center;html=1;fontSize=12;fontStyle=0;aspect=fixed;pointerEvents=1;shape=mxgraph.aws4.internet_gateway;" vertex="1" parent="O4ym9vWu2uvGQRPtnUVD-29">
          <mxGeometry x="265" y="-25" width="53" height="53" as="geometry" />
        </mxCell>
        <mxCell id="O4ym9vWu2uvGQRPtnUVD-32" value="Amazon CLoudwatch" style="sketch=0;points=[[0,0,0],[0.25,0,0],[0.5,0,0],[0.75,0,0],[1,0,0],[0,1,0],[0.25,1,0],[0.5,1,0],[0.75,1,0],[1,1,0],[0,0.25,0],[0,0.5,0],[0,0.75,0],[1,0.25,0],[1,0.5,0],[1,0.75,0]];points=[[0,0,0],[0.25,0,0],[0.5,0,0],[0.75,0,0],[1,0,0],[0,1,0],[0.25,1,0],[0.5,1,0],[0.75,1,0],[1,1,0],[0,0.25,0],[0,0.5,0],[0,0.75,0],[1,0.25,0],[1,0.5,0],[1,0.75,0]];outlineConnect=0;fontColor=#232F3E;fillColor=#E7157B;strokeColor=#ffffff;dashed=0;verticalLabelPosition=bottom;verticalAlign=top;align=center;html=1;fontSize=12;fontStyle=0;aspect=fixed;shape=mxgraph.aws4.resourceIcon;resIcon=mxgraph.aws4.cloudwatch_2;" vertex="1" parent="O4ym9vWu2uvGQRPtnUVD-6">
          <mxGeometry x="120" y="687" width="78" height="78" as="geometry" />
        </mxCell>
        <mxCell id="O4ym9vWu2uvGQRPtnUVD-33" value="Comprehend" style="sketch=0;points=[[0,0,0],[0.25,0,0],[0.5,0,0],[0.75,0,0],[1,0,0],[0,1,0],[0.25,1,0],[0.5,1,0],[0.75,1,0],[1,1,0],[0,0.25,0],[0,0.5,0],[0,0.75,0],[1,0.25,0],[1,0.5,0],[1,0.75,0]];outlineConnect=0;fontColor=#232F3E;fillColor=#01A88D;strokeColor=#ffffff;dashed=0;verticalLabelPosition=bottom;verticalAlign=top;align=center;html=1;fontSize=12;fontStyle=0;aspect=fixed;shape=mxgraph.aws4.resourceIcon;resIcon=mxgraph.aws4.comprehend;" vertex="1" parent="O4ym9vWu2uvGQRPtnUVD-6">
          <mxGeometry x="920" y="561" width="78" height="78" as="geometry" />
        </mxCell>
        <mxCell id="O4ym9vWu2uvGQRPtnUVD-34" value="VPC Gateway&lt;div&gt;Endpoint&lt;/div&gt;" style="sketch=0;outlineConnect=0;fontColor=#232F3E;gradientColor=none;fillColor=#8C4FFF;strokeColor=none;dashed=0;verticalLabelPosition=bottom;verticalAlign=top;align=center;html=1;fontSize=12;fontStyle=0;aspect=fixed;pointerEvents=1;shape=mxgraph.aws4.endpoints;" vertex="1" parent="O4ym9vWu2uvGQRPtnUVD-6">
          <mxGeometry x="480" y="447" width="50" height="50" as="geometry" />
        </mxCell>
        <mxCell id="O4ym9vWu2uvGQRPtnUVD-35" value="" style="fillColor=none;strokeColor=#5A6C86;dashed=1;verticalAlign=top;fontStyle=0;fontColor=#5A6C86;whiteSpace=wrap;html=1;" vertex="1" parent="O4ym9vWu2uvGQRPtnUVD-6">
          <mxGeometry x="590" y="539" width="280" height="241" as="geometry" />
        </mxCell>
        <mxCell id="O4ym9vWu2uvGQRPtnUVD-36" style="edgeStyle=orthogonalEdgeStyle;rounded=0;orthogonalLoop=1;jettySize=auto;html=1;entryX=0.5;entryY=0;entryDx=0;entryDy=0;entryPerimeter=0;" edge="1" parent="O4ym9vWu2uvGQRPtnUVD-6" source="O4ym9vWu2uvGQRPtnUVD-34" target="O4ym9vWu2uvGQRPtnUVD-15">
          <mxGeometry relative="1" as="geometry" />
        </mxCell>
        <mxCell id="O4ym9vWu2uvGQRPtnUVD-37" value="API Gateway" style="sketch=0;points=[[0,0,0],[0.25,0,0],[0.5,0,0],[0.75,0,0],[1,0,0],[0,1,0],[0.25,1,0],[0.5,1,0],[0.75,1,0],[1,1,0],[0,0.25,0],[0,0.5,0],[0,0.75,0],[1,0.25,0],[1,0.5,0],[1,0.75,0]];outlineConnect=0;fontColor=#232F3E;fillColor=#E7157B;strokeColor=#ffffff;dashed=0;verticalLabelPosition=bottom;verticalAlign=top;align=center;html=1;fontSize=12;fontStyle=0;aspect=fixed;shape=mxgraph.aws4.resourceIcon;resIcon=mxgraph.aws4.api_gateway;" vertex="1" parent="O4ym9vWu2uvGQRPtnUVD-6">
          <mxGeometry x="50" y="135" width="82" height="82" as="geometry" />
        </mxCell>
        <mxCell id="O4ym9vWu2uvGQRPtnUVD-38" value="" style="edgeStyle=orthogonalEdgeStyle;rounded=0;orthogonalLoop=1;jettySize=auto;html=1;" edge="1" parent="O4ym9vWu2uvGQRPtnUVD-6" source="O4ym9vWu2uvGQRPtnUVD-37" target="O4ym9vWu2uvGQRPtnUVD-10">
          <mxGeometry relative="1" as="geometry" />
        </mxCell>
        <mxCell id="O4ym9vWu2uvGQRPtnUVD-39" style="edgeStyle=orthogonalEdgeStyle;rounded=0;orthogonalLoop=1;jettySize=auto;html=1;startArrow=classic;startFill=1;" edge="1" parent="O4ym9vWu2uvGQRPtnUVD-6" source="O4ym9vWu2uvGQRPtnUVD-37" target="O4ym9vWu2uvGQRPtnUVD-7">
          <mxGeometry relative="1" as="geometry" />
        </mxCell>
        <mxCell id="O4ym9vWu2uvGQRPtnUVD-40" value="AWS Parameter Store" style="sketch=0;outlineConnect=0;fontColor=#232F3E;gradientColor=none;fillColor=#E7157B;strokeColor=none;dashed=0;verticalLabelPosition=bottom;verticalAlign=top;align=center;html=1;fontSize=12;fontStyle=0;aspect=fixed;pointerEvents=1;shape=mxgraph.aws4.parameter_store;" vertex="1" parent="O4ym9vWu2uvGQRPtnUVD-6">
          <mxGeometry x="295.5" y="539" width="75" height="78" as="geometry" />
        </mxCell>
        <mxCell id="O4ym9vWu2uvGQRPtnUVD-41" value="Lambda" style="outlineConnect=0;dashed=0;verticalLabelPosition=bottom;verticalAlign=top;align=center;html=1;shape=mxgraph.aws3.lambda_function;fillColor=#F58534;gradientColor=none;" vertex="1" parent="O4ym9vWu2uvGQRPtnUVD-6">
          <mxGeometry x="150" y="237" width="69" height="72" as="geometry" />
        </mxCell>
        <mxCell id="O4ym9vWu2uvGQRPtnUVD-42" style="edgeStyle=orthogonalEdgeStyle;rounded=0;orthogonalLoop=1;jettySize=auto;html=1;exitX=1;exitY=0.5;exitDx=0;exitDy=0;exitPerimeter=0;entryX=0.5;entryY=0;entryDx=0;entryDy=0;entryPerimeter=0;" edge="1" parent="O4ym9vWu2uvGQRPtnUVD-6" source="O4ym9vWu2uvGQRPtnUVD-37" target="O4ym9vWu2uvGQRPtnUVD-41">
          <mxGeometry relative="1" as="geometry" />
        </mxCell>
        <mxCell id="O4ym9vWu2uvGQRPtnUVD-43" style="edgeStyle=orthogonalEdgeStyle;rounded=0;orthogonalLoop=1;jettySize=auto;html=1;exitX=0.5;exitY=1;exitDx=0;exitDy=0;exitPerimeter=0;entryX=1;entryY=0.5;entryDx=0;entryDy=0;entryPerimeter=0;" edge="1" parent="O4ym9vWu2uvGQRPtnUVD-6" source="O4ym9vWu2uvGQRPtnUVD-41" target="O4ym9vWu2uvGQRPtnUVD-10">
          <mxGeometry relative="1" as="geometry" />
        </mxCell>
        <mxCell id="O4ym9vWu2uvGQRPtnUVD-44" value="Orchestrator&amp;nbsp; &amp;nbsp; VPC" style="points=[[0,0],[0.25,0],[0.5,0],[0.75,0],[1,0],[1,0.25],[1,0.5],[1,0.75],[1,1],[0.75,1],[0.5,1],[0.25,1],[0,1],[0,0.75],[0,0.5],[0,0.25]];outlineConnect=0;gradientColor=none;html=1;whiteSpace=wrap;fontSize=12;fontStyle=0;container=1;pointerEvents=0;collapsible=0;recursiveResize=0;shape=mxgraph.aws4.group;grIcon=mxgraph.aws4.group_vpc2;strokeColor=#8C4FFF;fillColor=none;verticalAlign=top;align=left;spacingLeft=30;fontColor=#AAB7B8;dashed=0;" vertex="1" parent="O4ym9vWu2uvGQRPtnUVD-6">
          <mxGeometry x="226" y="85.5" width="214" height="384.5" as="geometry" />
        </mxCell>
        <mxCell id="O4ym9vWu2uvGQRPtnUVD-45" value="Private subnet" style="points=[[0,0],[0.25,0],[0.5,0],[0.75,0],[1,0],[1,0.25],[1,0.5],[1,0.75],[1,1],[0.75,1],[0.5,1],[0.25,1],[0,1],[0,0.75],[0,0.5],[0,0.25]];outlineConnect=0;gradientColor=none;html=1;whiteSpace=wrap;fontSize=12;fontStyle=0;container=1;pointerEvents=0;collapsible=0;recursiveResize=0;shape=mxgraph.aws4.group;grIcon=mxgraph.aws4.group_security_group;grStroke=0;strokeColor=#00A4A6;fillColor=#E6F6F7;verticalAlign=top;align=left;spacingLeft=30;fontColor=#147EBA;dashed=0;" vertex="1" parent="O4ym9vWu2uvGQRPtnUVD-44">
          <mxGeometry x="42" y="203.5" width="130" height="157" as="geometry" />
        </mxCell>
        <mxCell id="O4ym9vWu2uvGQRPtnUVD-46" value="" style="sketch=0;points=[[0,0,0],[0.25,0,0],[0.5,0,0],[0.75,0,0],[1,0,0],[0,1,0],[0.25,1,0],[0.5,1,0],[0.75,1,0],[1,1,0],[0,0.25,0],[0,0.5,0],[0,0.75,0],[1,0.25,0],[1,0.5,0],[1,0.75,0]];outlineConnect=0;fontColor=#232F3E;fillColor=#ED7100;strokeColor=#ffffff;dashed=0;verticalLabelPosition=bottom;verticalAlign=top;align=center;html=1;fontSize=12;fontStyle=0;aspect=fixed;shape=mxgraph.aws4.resourceIcon;resIcon=mxgraph.aws4.lambda;" vertex="1" parent="O4ym9vWu2uvGQRPtnUVD-45">
          <mxGeometry x="26" y="57" width="78" height="78" as="geometry" />
        </mxCell>
        <mxCell id="O4ym9vWu2uvGQRPtnUVD-47" value="Public subnet" style="points=[[0,0],[0.25,0],[0.5,0],[0.75,0],[1,0],[1,0.25],[1,0.5],[1,0.75],[1,1],[0.75,1],[0.5,1],[0.25,1],[0,1],[0,0.75],[0,0.5],[0,0.25]];outlineConnect=0;gradientColor=none;html=1;whiteSpace=wrap;fontSize=12;fontStyle=0;container=1;pointerEvents=0;collapsible=0;recursiveResize=0;shape=mxgraph.aws4.group;grIcon=mxgraph.aws4.group_security_group;grStroke=0;strokeColor=#7AA116;fillColor=#F2F6E8;verticalAlign=top;align=left;spacingLeft=30;fontColor=#248814;dashed=0;" vertex="1" parent="O4ym9vWu2uvGQRPtnUVD-44">
          <mxGeometry x="45" y="53.5" width="130" height="130" as="geometry" />
        </mxCell>
        <mxCell id="O4ym9vWu2uvGQRPtnUVD-48" value="VPC to VPC NAT" style="sketch=0;outlineConnect=0;fontColor=#232F3E;gradientColor=none;fillColor=#8C4FFF;strokeColor=none;dashed=0;verticalLabelPosition=bottom;verticalAlign=top;align=center;html=1;fontSize=12;fontStyle=0;aspect=fixed;pointerEvents=1;shape=mxgraph.aws4.nat_gateway;" vertex="1" parent="O4ym9vWu2uvGQRPtnUVD-47">
          <mxGeometry x="68" y="39.5" width="51" height="51" as="geometry" />
        </mxCell>
        <mxCell id="O4ym9vWu2uvGQRPtnUVD-49" style="edgeStyle=orthogonalEdgeStyle;rounded=0;orthogonalLoop=1;jettySize=auto;html=1;" edge="1" parent="O4ym9vWu2uvGQRPtnUVD-6" source="O4ym9vWu2uvGQRPtnUVD-7" target="O4ym9vWu2uvGQRPtnUVD-46">
          <mxGeometry relative="1" as="geometry" />
        </mxCell>
        <mxCell id="O4ym9vWu2uvGQRPtnUVD-50" style="edgeStyle=orthogonalEdgeStyle;rounded=0;orthogonalLoop=1;jettySize=auto;html=1;entryX=1;entryY=0;entryDx=0;entryDy=0;entryPerimeter=0;dashed=1;exitX=0.25;exitY=0;exitDx=0;exitDy=0;exitPerimeter=0;" edge="1" parent="O4ym9vWu2uvGQRPtnUVD-6" source="O4ym9vWu2uvGQRPtnUVD-46" target="O4ym9vWu2uvGQRPtnUVD-37">
          <mxGeometry relative="1" as="geometry">
            <Array as="points">
              <mxPoint x="310" y="346" />
              <mxPoint x="310" y="135" />
            </Array>
          </mxGeometry>
        </mxCell>
        <mxCell id="O4ym9vWu2uvGQRPtnUVD-51" value="" style="edgeStyle=orthogonalEdgeStyle;rounded=0;orthogonalLoop=1;jettySize=auto;html=1;" edge="1" parent="O4ym9vWu2uvGQRPtnUVD-6" source="O4ym9vWu2uvGQRPtnUVD-52" target="O4ym9vWu2uvGQRPtnUVD-33">
          <mxGeometry relative="1" as="geometry" />
        </mxCell>
        <mxCell id="O4ym9vWu2uvGQRPtnUVD-52" value="VPC Interface&lt;div&gt;Endpoint&lt;/div&gt;" style="sketch=0;outlineConnect=0;fontColor=#232F3E;gradientColor=none;fillColor=#8C4FFF;strokeColor=none;dashed=0;verticalLabelPosition=bottom;verticalAlign=top;align=center;html=1;fontSize=12;fontStyle=0;aspect=fixed;pointerEvents=1;shape=mxgraph.aws4.endpoints;" vertex="1" parent="O4ym9vWu2uvGQRPtnUVD-6">
          <mxGeometry x="934" y="440" width="50" height="50" as="geometry" />
        </mxCell>
        <mxCell id="O4ym9vWu2uvGQRPtnUVD-53" value="VPC Interface&lt;div&gt;Endpoint&lt;/div&gt;" style="sketch=0;outlineConnect=0;fontColor=#232F3E;gradientColor=none;fillColor=#8C4FFF;strokeColor=none;dashed=0;verticalLabelPosition=bottom;verticalAlign=top;align=center;html=1;fontSize=12;fontStyle=0;aspect=fixed;pointerEvents=1;shape=mxgraph.aws4.endpoints;" vertex="1" parent="O4ym9vWu2uvGQRPtnUVD-6">
          <mxGeometry x="738.5" y="447" width="50" height="50" as="geometry" />
        </mxCell>
        <mxCell id="O4ym9vWu2uvGQRPtnUVD-54" style="edgeStyle=orthogonalEdgeStyle;rounded=0;orthogonalLoop=1;jettySize=auto;html=1;" edge="1" parent="O4ym9vWu2uvGQRPtnUVD-6" source="O4ym9vWu2uvGQRPtnUVD-48" target="O4ym9vWu2uvGQRPtnUVD-23">
          <mxGeometry relative="1" as="geometry">
            <Array as="points">
              <mxPoint x="460" y="204" />
              <mxPoint x="460" y="395" />
            </Array>
          </mxGeometry>
        </mxCell>
        <mxCell id="O4ym9vWu2uvGQRPtnUVD-55" value="2" style="rounded=1;whiteSpace=wrap;html=1;fillColor=#007CBD;strokeColor=none;fontColor=#FFFFFF;fontStyle=1;fontSize=22;" vertex="1" parent="O4ym9vWu2uvGQRPtnUVD-6">
          <mxGeometry x="-10" y="179" width="40" height="38" as="geometry" />
        </mxCell>
        <mxCell id="O4ym9vWu2uvGQRPtnUVD-56" value="10" style="rounded=1;whiteSpace=wrap;html=1;fillColor=#007CBD;strokeColor=none;fontColor=#FFFFFF;fontStyle=1;fontSize=22;" vertex="1" parent="O4ym9vWu2uvGQRPtnUVD-6">
          <mxGeometry x="139" y="640.5" width="40" height="38" as="geometry" />
        </mxCell>
        <mxCell id="O4ym9vWu2uvGQRPtnUVD-57" style="edgeStyle=orthogonalEdgeStyle;rounded=0;orthogonalLoop=1;jettySize=auto;html=1;entryX=0.5;entryY=1;entryDx=0;entryDy=0;entryPerimeter=0;" edge="1" parent="O4ym9vWu2uvGQRPtnUVD-6" source="O4ym9vWu2uvGQRPtnUVD-40" target="O4ym9vWu2uvGQRPtnUVD-46">
          <mxGeometry relative="1" as="geometry" />
        </mxCell>
        <mxCell id="O4ym9vWu2uvGQRPtnUVD-58" value="AWS Config" style="sketch=0;points=[[0,0,0],[0.25,0,0],[0.5,0,0],[0.75,0,0],[1,0,0],[0,1,0],[0.25,1,0],[0.5,1,0],[0.75,1,0],[1,1,0],[0,0.25,0],[0,0.5,0],[0,0.75,0],[1,0.25,0],[1,0.5,0],[1,0.75,0]];points=[[0,0,0],[0.25,0,0],[0.5,0,0],[0.75,0,0],[1,0,0],[0,1,0],[0.25,1,0],[0.5,1,0],[0.75,1,0],[1,1,0],[0,0.25,0],[0,0.5,0],[0,0.75,0],[1,0.25,0],[1,0.5,0],[1,0.75,0]];outlineConnect=0;fontColor=#232F3E;fillColor=#E7157B;strokeColor=#ffffff;dashed=0;verticalLabelPosition=bottom;verticalAlign=top;align=center;html=1;fontSize=12;fontStyle=0;aspect=fixed;shape=mxgraph.aws4.resourceIcon;resIcon=mxgraph.aws4.config;" vertex="1" parent="O4ym9vWu2uvGQRPtnUVD-6">
          <mxGeometry x="30" y="687" width="78" height="78" as="geometry" />
        </mxCell>
        <mxCell id="O4ym9vWu2uvGQRPtnUVD-59" value="CloudTrail" style="sketch=0;points=[[0,0,0],[0.25,0,0],[0.5,0,0],[0.75,0,0],[1,0,0],[0,1,0],[0.25,1,0],[0.5,1,0],[0.75,1,0],[1,1,0],[0,0.25,0],[0,0.5,0],[0,0.75,0],[1,0.25,0],[1,0.5,0],[1,0.75,0]];points=[[0,0,0],[0.25,0,0],[0.5,0,0],[0.75,0,0],[1,0,0],[0,1,0],[0.25,1,0],[0.5,1,0],[0.75,1,0],[1,1,0],[0,0.25,0],[0,0.5,0],[0,0.75,0],[1,0.25,0],[1,0.5,0],[1,0.75,0]];outlineConnect=0;fontColor=#232F3E;fillColor=#E7157B;strokeColor=#ffffff;dashed=0;verticalLabelPosition=bottom;verticalAlign=top;align=center;html=1;fontSize=12;fontStyle=0;aspect=fixed;shape=mxgraph.aws4.resourceIcon;resIcon=mxgraph.aws4.cloudtrail;" vertex="1" parent="O4ym9vWu2uvGQRPtnUVD-6">
          <mxGeometry x="210" y="687" width="78" height="78" as="geometry" />
        </mxCell>
        <mxCell id="O4ym9vWu2uvGQRPtnUVD-60" value="OpenSearch&lt;div&gt;Vector DB&lt;/div&gt;" style="sketch=0;outlineConnect=0;fontColor=#232F3E;gradientColor=none;fillColor=#8C4FFF;strokeColor=none;dashed=0;verticalLabelPosition=bottom;verticalAlign=top;align=center;html=1;fontSize=12;fontStyle=0;aspect=fixed;pointerEvents=1;shape=mxgraph.aws4.opensearch_service_data_node;" vertex="1" parent="O4ym9vWu2uvGQRPtnUVD-6">
          <mxGeometry x="757" y="559" width="78" height="78" as="geometry" />
        </mxCell>
        <mxCell id="O4ym9vWu2uvGQRPtnUVD-61" style="edgeStyle=orthogonalEdgeStyle;rounded=0;orthogonalLoop=1;jettySize=auto;html=1;entryX=0.623;entryY=0.015;entryDx=0;entryDy=0;entryPerimeter=0;" edge="1" parent="O4ym9vWu2uvGQRPtnUVD-6" source="O4ym9vWu2uvGQRPtnUVD-53" target="O4ym9vWu2uvGQRPtnUVD-35">
          <mxGeometry relative="1" as="geometry" />
        </mxCell>
        <mxCell id="O4ym9vWu2uvGQRPtnUVD-62" value="AWS WAF" style="sketch=0;points=[[0,0,0],[0.25,0,0],[0.5,0,0],[0.75,0,0],[1,0,0],[0,1,0],[0.25,1,0],[0.5,1,0],[0.75,1,0],[1,1,0],[0,0.25,0],[0,0.5,0],[0,0.75,0],[1,0.25,0],[1,0.5,0],[1,0.75,0]];outlineConnect=0;fontColor=#232F3E;fillColor=#DD344C;strokeColor=#ffffff;dashed=0;verticalLabelPosition=bottom;verticalAlign=top;align=center;html=1;fontSize=12;fontStyle=0;aspect=fixed;shape=mxgraph.aws4.resourceIcon;resIcon=mxgraph.aws4.waf;" vertex="1" parent="O4ym9vWu2uvGQRPtnUVD-1">
          <mxGeometry x="80" y="163" width="78" height="78" as="geometry" />
        </mxCell>
        <mxCell id="O4ym9vWu2uvGQRPtnUVD-63" style="edgeStyle=orthogonalEdgeStyle;rounded=0;orthogonalLoop=1;jettySize=auto;html=1;entryX=0;entryY=0.5;entryDx=0;entryDy=0;entryPerimeter=0;" edge="1" parent="O4ym9vWu2uvGQRPtnUVD-1" source="O4ym9vWu2uvGQRPtnUVD-62" target="O4ym9vWu2uvGQRPtnUVD-37">
          <mxGeometry relative="1" as="geometry" />
        </mxCell>
        <mxCell id="O4ym9vWu2uvGQRPtnUVD-64" value="1" style="rounded=1;whiteSpace=wrap;html=1;fillColor=#007CBD;strokeColor=none;fontColor=#FFFFFF;fontStyle=1;fontSize=22;" vertex="1" parent="O4ym9vWu2uvGQRPtnUVD-1">
          <mxGeometry x="30" y="491" width="40" height="38" as="geometry" />
        </mxCell>
        <mxCell id="O4ym9vWu2uvGQRPtnUVD-87" value="" style="sketch=0;outlineConnect=0;fontColor=#232F3E;gradientColor=none;fillColor=#232F3D;strokeColor=none;dashed=0;verticalLabelPosition=bottom;verticalAlign=top;align=center;html=1;fontSize=12;fontStyle=0;aspect=fixed;pointerEvents=1;shape=mxgraph.aws4.user;" vertex="1" parent="1">
          <mxGeometry x="33" y="507" width="78" height="78" as="geometry" />
        </mxCell>
        <mxCell id="O4ym9vWu2uvGQRPtnUVD-88" style="edgeStyle=orthogonalEdgeStyle;rounded=0;orthogonalLoop=1;jettySize=auto;html=1;entryX=0;entryY=0.5;entryDx=0;entryDy=0;entryPerimeter=0;" edge="1" parent="1" source="O4ym9vWu2uvGQRPtnUVD-87" target="O4ym9vWu2uvGQRPtnUVD-3">
          <mxGeometry relative="1" as="geometry" />
        </mxCell>
        <mxCell id="O4ym9vWu2uvGQRPtnUVD-89" value="" style="edgeStyle=orthogonalEdgeStyle;rounded=0;orthogonalLoop=1;jettySize=auto;html=1;entryX=0;entryY=0.5;entryDx=0;entryDy=0;entryPerimeter=0;" edge="1" parent="1" source="O4ym9vWu2uvGQRPtnUVD-87" target="O4ym9vWu2uvGQRPtnUVD-62">
          <mxGeometry relative="1" as="geometry">
            <mxPoint x="107" y="546" as="sourcePoint" />
            <mxPoint x="444" y="377" as="targetPoint" />
          </mxGeometry>
        </mxCell>
      </root>
    </mxGraphModel>
  </diagram>
  <diagram name="Page-4" id="WiTCEvaf4xqlTZE_F4do">
    <mxGraphModel dx="996" dy="569" grid="1" gridSize="10" guides="1" tooltips="1" connect="1" arrows="1" fold="1" page="1" pageScale="1" pageWidth="850" pageHeight="1100" math="0" shadow="0">
      <root>
        <mxCell id="0" />
        <mxCell id="1" parent="0" />
        <mxCell id="6BqpoQ76ZnwNNk5hBkpr-1" value="&lt;span style=&quot;font-size:12.0pt;font-family:&amp;quot;Calibri&amp;quot;,sans-serif;&lt;br/&gt;mso-fareast-font-family:Aptos;mso-fareast-theme-font:minor-latin;mso-ansi-language:&lt;br/&gt;EN-CA;mso-fareast-language:EN-US;mso-bidi-language:AR-SA&quot;&gt;ClinicalRecords&lt;/span&gt;" style="text;html=1;align=center;verticalAlign=middle;resizable=0;points=[];autosize=1;strokeColor=none;fillColor=none;" vertex="1" parent="1">
          <mxGeometry x="510" y="70" width="120" height="30" as="geometry" />
        </mxCell>
        <mxCell id="6BqpoQ76ZnwNNk5hBkpr-2" value="Primary Key" style="text;html=1;align=center;verticalAlign=middle;resizable=0;points=[];autosize=1;strokeColor=none;fillColor=none;" vertex="1" parent="1">
          <mxGeometry x="95" y="128" width="90" height="30" as="geometry" />
        </mxCell>
        <mxCell id="6BqpoQ76ZnwNNk5hBkpr-3" value="Attributes" style="text;html=1;align=center;verticalAlign=middle;resizable=0;points=[];autosize=1;strokeColor=none;fillColor=none;" vertex="1" parent="1">
          <mxGeometry x="670" y="128" width="70" height="30" as="geometry" />
        </mxCell>
        <mxCell id="6BqpoQ76ZnwNNk5hBkpr-4" value="Partition Key" style="text;html=1;align=center;verticalAlign=middle;resizable=0;points=[];autosize=1;strokeColor=none;fillColor=none;" vertex="1" parent="1">
          <mxGeometry x="20" y="168" width="90" height="30" as="geometry" />
        </mxCell>
        <mxCell id="6BqpoQ76ZnwNNk5hBkpr-5" value="Sort Key" style="text;html=1;align=center;verticalAlign=middle;resizable=0;points=[];autosize=1;strokeColor=none;fillColor=none;" vertex="1" parent="1">
          <mxGeometry x="185" y="168" width="70" height="30" as="geometry" />
        </mxCell>
        <mxCell id="6BqpoQ76ZnwNNk5hBkpr-6" value="" style="shape=curlyBracket;whiteSpace=wrap;html=1;rounded=1;labelPosition=left;verticalLabelPosition=middle;align=right;verticalAlign=middle;direction=south;" vertex="1" parent="1">
          <mxGeometry x="60" y="158" width="160" height="20" as="geometry" />
        </mxCell>
        <mxCell id="6BqpoQ76ZnwNNk5hBkpr-7" value="" style="shape=curlyBracket;whiteSpace=wrap;html=1;rounded=1;labelPosition=left;verticalLabelPosition=middle;align=right;verticalAlign=middle;direction=south;" vertex="1" parent="1">
          <mxGeometry x="310" y="158" width="790" height="20" as="geometry" />
        </mxCell>
        <mxCell id="6BqpoQ76ZnwNNk5hBkpr-8" value="&lt;span style=&quot;font-size:12.0pt;font-family:&amp;quot;Calibri&amp;quot;,sans-serif;&lt;br/&gt;mso-fareast-font-family:Aptos;mso-fareast-theme-font:minor-latin;mso-ansi-language:&lt;br/&gt;EN-CA;mso-fareast-language:EN-US;mso-bidi-language:AR-SA&quot;&gt;PatientID&amp;nbsp;&lt;/span&gt;" style="whiteSpace=wrap;html=1;fillColor=#d5e8d4;strokeColor=#82b366;" vertex="1" parent="1">
          <mxGeometry y="210" width="120" height="60" as="geometry" />
        </mxCell>
        <mxCell id="6BqpoQ76ZnwNNk5hBkpr-9" value="&lt;span style=&quot;font-size:12.0pt;font-family:&amp;quot;Calibri&amp;quot;,sans-serif;&lt;br/&gt;mso-fareast-font-family:Aptos;mso-fareast-theme-font:minor-latin;mso-ansi-language:&lt;br/&gt;EN-CA;mso-fareast-language:EN-US;mso-bidi-language:AR-SA&quot;&gt;ConversationID&lt;/span&gt;" style="whiteSpace=wrap;html=1;fillColor=#dae8fc;strokeColor=#6c8ebf;" vertex="1" parent="1">
          <mxGeometry x="160" y="210" width="120" height="60" as="geometry" />
        </mxCell>
        <mxCell id="6BqpoQ76ZnwNNk5hBkpr-10" value="&lt;span style=&quot;font-size:12.0pt;font-family:&amp;quot;Calibri&amp;quot;,sans-serif;&lt;br/&gt;mso-fareast-font-family:Aptos;mso-fareast-theme-font:minor-latin;mso-ansi-language:&lt;br/&gt;EN-CA;mso-fareast-language:EN-US;mso-bidi-language:AR-SA&quot;&gt;Date&amp;nbsp;&lt;/span&gt;" style="whiteSpace=wrap;html=1;fillColor=#fff2cc;strokeColor=#d6b656;" vertex="1" parent="1">
          <mxGeometry x="320" y="210" width="120" height="60" as="geometry" />
        </mxCell>
        <mxCell id="6BqpoQ76ZnwNNk5hBkpr-11" value="&lt;span style=&quot;font-size:12.0pt;font-family:&amp;quot;Calibri&amp;quot;,sans-serif;&lt;br/&gt;mso-fareast-font-family:Aptos;mso-fareast-theme-font:minor-latin;mso-ansi-language:&lt;br/&gt;EN-CA;mso-fareast-language:EN-US;mso-bidi-language:AR-SA&quot;&gt;ChiefComplaint&lt;/span&gt;" style="whiteSpace=wrap;html=1;fillColor=#fff2cc;strokeColor=#d6b656;" vertex="1" parent="1">
          <mxGeometry x="450" y="210" width="120" height="60" as="geometry" />
        </mxCell>
        <mxCell id="6BqpoQ76ZnwNNk5hBkpr-12" value="&lt;span style=&quot;font-size:12.0pt;font-family:&amp;quot;Calibri&amp;quot;,sans-serif;&lt;br/&gt;mso-fareast-font-family:Aptos;mso-fareast-theme-font:minor-latin;mso-ansi-language:&lt;br/&gt;EN-CA;mso-fareast-language:EN-US;mso-bidi-language:AR-SA&quot;&gt;MedicalEntities&lt;/span&gt;" style="whiteSpace=wrap;html=1;fillColor=#fff2cc;strokeColor=#d6b656;" vertex="1" parent="1">
          <mxGeometry x="580" y="210" width="120" height="60" as="geometry" />
        </mxCell>
        <mxCell id="6BqpoQ76ZnwNNk5hBkpr-13" value="&lt;span style=&quot;font-size:12.0pt;font-family:&amp;quot;Calibri&amp;quot;,sans-serif;&lt;br/&gt;mso-fareast-font-family:Aptos;mso-fareast-theme-font:minor-latin;mso-ansi-language:&lt;br/&gt;EN-CA;mso-fareast-language:EN-US;mso-bidi-language:AR-SA&quot;&gt;ICDCode&lt;/span&gt;" style="whiteSpace=wrap;html=1;fillColor=#fff2cc;strokeColor=#d6b656;" vertex="1" parent="1">
          <mxGeometry x="710" y="210" width="120" height="60" as="geometry" />
        </mxCell>
        <mxCell id="6BqpoQ76ZnwNNk5hBkpr-14" value="&lt;span style=&quot;font-size:12.0pt;font-family:&amp;quot;Calibri&amp;quot;,sans-serif;&lt;br/&gt;mso-fareast-font-family:Aptos;mso-fareast-theme-font:minor-latin;mso-ansi-language:&lt;br/&gt;EN-CA;mso-fareast-language:EN-US;mso-bidi-language:AR-SA&quot;&gt;RawDocument&lt;/span&gt;" style="whiteSpace=wrap;html=1;fillColor=#fff2cc;strokeColor=#d6b656;" vertex="1" parent="1">
          <mxGeometry x="840" y="210" width="120" height="60" as="geometry" />
        </mxCell>
        <mxCell id="6BqpoQ76ZnwNNk5hBkpr-15" value="&lt;span style=&quot;font-size:12.0pt;font-family:&amp;quot;Calibri&amp;quot;,sans-serif;&lt;br/&gt;mso-fareast-font-family:Aptos;mso-fareast-theme-font:minor-latin;mso-ansi-language:&lt;br/&gt;EN-CA;mso-fareast-language:EN-US;mso-bidi-language:AR-SA&quot;&gt;History&lt;/span&gt;" style="whiteSpace=wrap;html=1;fillColor=#fff2cc;strokeColor=#d6b656;" vertex="1" parent="1">
          <mxGeometry x="970" y="210" width="120" height="60" as="geometry" />
        </mxCell>
      </root>
    </mxGraphModel>
  </diagram>
  <diagram name="Page-5" id="A_vVmksn3KQozgILjDkh">
    <mxGraphModel dx="2213" dy="1264" grid="1" gridSize="10" guides="1" tooltips="1" connect="1" arrows="1" fold="1" page="1" pageScale="1" pageWidth="850" pageHeight="1100" math="0" shadow="0">
      <root>
        <mxCell id="0" />
        <mxCell id="1" parent="0" />
        <mxCell id="nUuuc7FgtQ5q5KsPHUkl-1" value="" style="edgeStyle=orthogonalEdgeStyle;rounded=0;orthogonalLoop=1;jettySize=auto;html=1;entryX=0;entryY=0.5;entryDx=0;entryDy=0;entryPerimeter=0;" edge="1" parent="1" source="nUuuc7FgtQ5q5KsPHUkl-3" target="nUuuc7FgtQ5q5KsPHUkl-18">
          <mxGeometry relative="1" as="geometry">
            <mxPoint x="270" y="602.5" as="targetPoint" />
          </mxGeometry>
        </mxCell>
        <mxCell id="nUuuc7FgtQ5q5KsPHUkl-3" value="Developer" style="sketch=0;outlineConnect=0;fontColor=#232F3E;gradientColor=none;fillColor=#232F3D;strokeColor=none;dashed=0;verticalLabelPosition=bottom;verticalAlign=top;align=center;html=1;fontSize=12;fontStyle=0;aspect=fixed;pointerEvents=1;shape=mxgraph.aws4.user;" vertex="1" parent="1">
          <mxGeometry x="90" y="583.5" width="78" height="78" as="geometry" />
        </mxCell>
        <mxCell id="nUuuc7FgtQ5q5KsPHUkl-9" value="&lt;br&gt;&lt;div&gt;&lt;br&gt;&lt;/div&gt;&lt;div&gt;&lt;br&gt;&lt;/div&gt;&lt;div&gt;&lt;br&gt;&lt;/div&gt;&lt;div&gt;&lt;br&gt;&lt;/div&gt;&lt;div&gt;&lt;br&gt;&lt;/div&gt;&lt;div&gt;&lt;br&gt;&lt;/div&gt;" style="points=[[0,0],[0.25,0],[0.5,0],[0.75,0],[1,0],[1,0.25],[1,0.5],[1,0.75],[1,1],[0.75,1],[0.5,1],[0.25,1],[0,1],[0,0.75],[0,0.5],[0,0.25]];outlineConnect=0;gradientColor=none;html=1;whiteSpace=wrap;fontSize=12;fontStyle=0;container=1;pointerEvents=0;collapsible=0;recursiveResize=0;shape=mxgraph.aws4.group;grIcon=mxgraph.aws4.group_aws_cloud_alt;strokeColor=#232F3E;fillColor=none;verticalAlign=top;align=left;spacingLeft=30;fontColor=#232F3E;dashed=0;" vertex="1" parent="1">
          <mxGeometry x="270" y="220" width="1670" height="830" as="geometry" />
        </mxCell>
        <mxCell id="nUuuc7FgtQ5q5KsPHUkl-15" value="" style="fillColor=none;strokeColor=#5A6C86;dashed=1;verticalAlign=top;fontStyle=0;fontColor=#5A6C86;whiteSpace=wrap;html=1;dashPattern=12 12;" vertex="1" parent="nUuuc7FgtQ5q5KsPHUkl-9">
          <mxGeometry x="60" y="300" width="1540" height="180" as="geometry" />
        </mxCell>
        <mxCell id="nUuuc7FgtQ5q5KsPHUkl-6" value="" style="edgeStyle=orthogonalEdgeStyle;rounded=0;orthogonalLoop=1;jettySize=auto;html=1;" edge="1" parent="nUuuc7FgtQ5q5KsPHUkl-9" source="nUuuc7FgtQ5q5KsPHUkl-7" target="nUuuc7FgtQ5q5KsPHUkl-13">
          <mxGeometry relative="1" as="geometry" />
        </mxCell>
        <mxCell id="nUuuc7FgtQ5q5KsPHUkl-7" value="CodeBuild" style="sketch=0;points=[[0,0,0],[0.25,0,0],[0.5,0,0],[0.75,0,0],[1,0,0],[0,1,0],[0.25,1,0],[0.5,1,0],[0.75,1,0],[1,1,0],[0,0.25,0],[0,0.5,0],[0,0.75,0],[1,0.25,0],[1,0.5,0],[1,0.75,0]];outlineConnect=0;fontColor=#232F3E;fillColor=#C925D1;strokeColor=#ffffff;dashed=0;verticalLabelPosition=bottom;verticalAlign=top;align=center;html=1;fontSize=12;fontStyle=0;aspect=fixed;shape=mxgraph.aws4.resourceIcon;resIcon=mxgraph.aws4.codebuild;" vertex="1" parent="nUuuc7FgtQ5q5KsPHUkl-9">
          <mxGeometry x="232" y="363.5" width="78" height="78" as="geometry" />
        </mxCell>
        <mxCell id="nUuuc7FgtQ5q5KsPHUkl-13" value="CodeArtifact" style="sketch=0;points=[[0,0,0],[0.25,0,0],[0.5,0,0],[0.75,0,0],[1,0,0],[0,1,0],[0.25,1,0],[0.5,1,0],[0.75,1,0],[1,1,0],[0,0.25,0],[0,0.5,0],[0,0.75,0],[1,0.25,0],[1,0.5,0],[1,0.75,0]];outlineConnect=0;fontColor=#232F3E;fillColor=#C925D1;strokeColor=#ffffff;dashed=0;verticalLabelPosition=bottom;verticalAlign=top;align=center;html=1;fontSize=12;fontStyle=0;aspect=fixed;shape=mxgraph.aws4.resourceIcon;resIcon=mxgraph.aws4.codeartifact;" vertex="1" parent="nUuuc7FgtQ5q5KsPHUkl-9">
          <mxGeometry x="232" y="520" width="78" height="78" as="geometry" />
        </mxCell>
        <mxCell id="nUuuc7FgtQ5q5KsPHUkl-24" value="" style="edgeStyle=orthogonalEdgeStyle;rounded=0;orthogonalLoop=1;jettySize=auto;html=1;" edge="1" parent="nUuuc7FgtQ5q5KsPHUkl-9" source="nUuuc7FgtQ5q5KsPHUkl-18" target="nUuuc7FgtQ5q5KsPHUkl-7">
          <mxGeometry relative="1" as="geometry" />
        </mxCell>
        <mxCell id="nUuuc7FgtQ5q5KsPHUkl-18" value="Code Repository" style="sketch=0;points=[[0,0,0],[0.25,0,0],[0.5,0,0],[0.75,0,0],[1,0,0],[0,1,0],[0.25,1,0],[0.5,1,0],[0.75,1,0],[1,1,0],[0,0.25,0],[0,0.5,0],[0,0.75,0],[1,0.25,0],[1,0.5,0],[1,0.75,0]];outlineConnect=0;fontColor=#232F3E;fillColor=#C925D1;strokeColor=#ffffff;dashed=0;verticalLabelPosition=bottom;verticalAlign=top;align=center;html=1;fontSize=12;fontStyle=0;aspect=fixed;shape=mxgraph.aws4.resourceIcon;resIcon=mxgraph.aws4.codecommit;" vertex="1" parent="nUuuc7FgtQ5q5KsPHUkl-9">
          <mxGeometry x="80" y="363.5" width="78" height="78" as="geometry" />
        </mxCell>
        <mxCell id="nUuuc7FgtQ5q5KsPHUkl-21" value="Amazon CodeGuru" style="sketch=0;points=[[0,0,0],[0.25,0,0],[0.5,0,0],[0.75,0,0],[1,0,0],[0,1,0],[0.25,1,0],[0.5,1,0],[0.75,1,0],[1,1,0],[0,0.25,0],[0,0.5,0],[0,0.75,0],[1,0.25,0],[1,0.5,0],[1,0.75,0]];outlineConnect=0;fontColor=#232F3E;fillColor=#01A88D;strokeColor=#ffffff;dashed=0;verticalLabelPosition=bottom;verticalAlign=top;align=center;html=1;fontSize=12;fontStyle=0;aspect=fixed;shape=mxgraph.aws4.resourceIcon;resIcon=mxgraph.aws4.codeguru_2;" vertex="1" parent="nUuuc7FgtQ5q5KsPHUkl-9">
          <mxGeometry x="100" y="520" width="78" height="78" as="geometry" />
        </mxCell>
        <mxCell id="nUuuc7FgtQ5q5KsPHUkl-22" value="Amazon ECR&lt;br&gt;Unqualified Images" style="sketch=0;points=[[0,0,0],[0.25,0,0],[0.5,0,0],[0.75,0,0],[1,0,0],[0,1,0],[0.25,1,0],[0.5,1,0],[0.75,1,0],[1,1,0],[0,0.25,0],[0,0.5,0],[0,0.75,0],[1,0.25,0],[1,0.5,0],[1,0.75,0]];outlineConnect=0;fontColor=#232F3E;fillColor=#ED7100;strokeColor=#ffffff;dashed=0;verticalLabelPosition=bottom;verticalAlign=top;align=center;html=1;fontSize=12;fontStyle=0;aspect=fixed;shape=mxgraph.aws4.resourceIcon;resIcon=mxgraph.aws4.ecr;" vertex="1" parent="nUuuc7FgtQ5q5KsPHUkl-9">
          <mxGeometry x="360" y="520" width="78" height="78" as="geometry" />
        </mxCell>
        <mxCell id="nUuuc7FgtQ5q5KsPHUkl-26" style="edgeStyle=orthogonalEdgeStyle;rounded=0;orthogonalLoop=1;jettySize=auto;html=1;entryX=0.5;entryY=0;entryDx=0;entryDy=0;entryPerimeter=0;" edge="1" parent="nUuuc7FgtQ5q5KsPHUkl-9" source="nUuuc7FgtQ5q5KsPHUkl-7" target="nUuuc7FgtQ5q5KsPHUkl-21">
          <mxGeometry relative="1" as="geometry">
            <Array as="points">
              <mxPoint x="271" y="490" />
              <mxPoint x="139" y="490" />
            </Array>
          </mxGeometry>
        </mxCell>
        <mxCell id="nUuuc7FgtQ5q5KsPHUkl-27" style="edgeStyle=orthogonalEdgeStyle;rounded=0;orthogonalLoop=1;jettySize=auto;html=1;entryX=0.5;entryY=0;entryDx=0;entryDy=0;entryPerimeter=0;" edge="1" parent="nUuuc7FgtQ5q5KsPHUkl-9" source="nUuuc7FgtQ5q5KsPHUkl-7" target="nUuuc7FgtQ5q5KsPHUkl-22">
          <mxGeometry relative="1" as="geometry">
            <Array as="points">
              <mxPoint x="271" y="490" />
              <mxPoint x="399" y="490" />
            </Array>
          </mxGeometry>
        </mxCell>
        <mxCell id="nUuuc7FgtQ5q5KsPHUkl-31" value="Region" style="points=[[0,0],[0.25,0],[0.5,0],[0.75,0],[1,0],[1,0.25],[1,0.5],[1,0.75],[1,1],[0.75,1],[0.5,1],[0.25,1],[0,1],[0,0.75],[0,0.5],[0,0.25]];outlineConnect=0;gradientColor=none;html=1;whiteSpace=wrap;fontSize=12;fontStyle=0;container=1;pointerEvents=0;collapsible=0;recursiveResize=0;shape=mxgraph.aws4.group;grIcon=mxgraph.aws4.group_region;strokeColor=#00A4A6;fillColor=none;verticalAlign=top;align=left;spacingLeft=30;fontColor=#147EBA;dashed=1;" vertex="1" parent="nUuuc7FgtQ5q5KsPHUkl-9">
          <mxGeometry x="25" y="30" width="1625" height="780" as="geometry" />
        </mxCell>
        <mxCell id="nUuuc7FgtQ5q5KsPHUkl-32" value="VPC" style="points=[[0,0],[0.25,0],[0.5,0],[0.75,0],[1,0],[1,0.25],[1,0.5],[1,0.75],[1,1],[0.75,1],[0.5,1],[0.25,1],[0,1],[0,0.75],[0,0.5],[0,0.25]];outlineConnect=0;gradientColor=none;html=1;whiteSpace=wrap;fontSize=12;fontStyle=0;container=1;pointerEvents=0;collapsible=0;recursiveResize=0;shape=mxgraph.aws4.group;grIcon=mxgraph.aws4.group_vpc2;strokeColor=#8C4FFF;fillColor=none;verticalAlign=top;align=left;spacingLeft=30;fontColor=#AAB7B8;dashed=0;" vertex="1" parent="nUuuc7FgtQ5q5KsPHUkl-31">
          <mxGeometry x="23" y="30" width="1577" height="720" as="geometry" />
        </mxCell>
        <mxCell id="nUuuc7FgtQ5q5KsPHUkl-33" value="CloudWatch" style="sketch=0;points=[[0,0,0],[0.25,0,0],[0.5,0,0],[0.75,0,0],[1,0,0],[0,1,0],[0.25,1,0],[0.5,1,0],[0.75,1,0],[1,1,0],[0,0.25,0],[0,0.5,0],[0,0.75,0],[1,0.25,0],[1,0.5,0],[1,0.75,0]];points=[[0,0,0],[0.25,0,0],[0.5,0,0],[0.75,0,0],[1,0,0],[0,1,0],[0.25,1,0],[0.5,1,0],[0.75,1,0],[1,1,0],[0,0.25,0],[0,0.5,0],[0,0.75,0],[1,0.25,0],[1,0.5,0],[1,0.75,0]];outlineConnect=0;fontColor=#232F3E;fillColor=#E7157B;strokeColor=#ffffff;dashed=0;verticalLabelPosition=bottom;verticalAlign=top;align=center;html=1;fontSize=12;fontStyle=0;aspect=fixed;shape=mxgraph.aws4.resourceIcon;resIcon=mxgraph.aws4.cloudwatch_2;" vertex="1" parent="nUuuc7FgtQ5q5KsPHUkl-32">
          <mxGeometry x="1392" y="10" width="78" height="78" as="geometry" />
        </mxCell>
        <mxCell id="nUuuc7FgtQ5q5KsPHUkl-34" value="X-Ray" style="sketch=0;points=[[0,0,0],[0.25,0,0],[0.5,0,0],[0.75,0,0],[1,0,0],[0,1,0],[0.25,1,0],[0.5,1,0],[0.75,1,0],[1,1,0],[0,0.25,0],[0,0.5,0],[0,0.75,0],[1,0.25,0],[1,0.5,0],[1,0.75,0]];outlineConnect=0;fontColor=#232F3E;fillColor=#C925D1;strokeColor=#ffffff;dashed=0;verticalLabelPosition=bottom;verticalAlign=top;align=center;html=1;fontSize=12;fontStyle=0;aspect=fixed;shape=mxgraph.aws4.resourceIcon;resIcon=mxgraph.aws4.xray;" vertex="1" parent="nUuuc7FgtQ5q5KsPHUkl-32">
          <mxGeometry x="1484" y="10" width="78" height="78" as="geometry" />
        </mxCell>
        <mxCell id="nUuuc7FgtQ5q5KsPHUkl-16" value="" style="sketch=0;points=[[0,0,0],[0.25,0,0],[0.5,0,0],[0.75,0,0],[1,0,0],[0,1,0],[0.25,1,0],[0.5,1,0],[0.75,1,0],[1,1,0],[0,0.25,0],[0,0.5,0],[0,0.75,0],[1,0.25,0],[1,0.5,0],[1,0.75,0]];outlineConnect=0;fontColor=#232F3E;fillColor=#C925D1;strokeColor=#ffffff;dashed=0;verticalLabelPosition=bottom;verticalAlign=top;align=center;html=1;fontSize=12;fontStyle=0;aspect=fixed;shape=mxgraph.aws4.resourceIcon;resIcon=mxgraph.aws4.codepipeline;" vertex="1" parent="nUuuc7FgtQ5q5KsPHUkl-32">
          <mxGeometry x="12" y="240" width="30" height="30" as="geometry" />
        </mxCell>
        <mxCell id="nUuuc7FgtQ5q5KsPHUkl-42" value="Amazon ECR&lt;div&gt;Qualified Images&lt;/div&gt;" style="sketch=0;points=[[0,0,0],[0.25,0,0],[0.5,0,0],[0.75,0,0],[1,0,0],[0,1,0],[0.25,1,0],[0.5,1,0],[0.75,1,0],[1,1,0],[0,0.25,0],[0,0.5,0],[0,0.75,0],[1,0.25,0],[1,0.5,0],[1,0.75,0]];outlineConnect=0;fontColor=#232F3E;fillColor=#ED7100;strokeColor=#ffffff;dashed=0;verticalLabelPosition=bottom;verticalAlign=top;align=center;html=1;fontSize=12;fontStyle=0;aspect=fixed;shape=mxgraph.aws4.resourceIcon;resIcon=mxgraph.aws4.ecr;" vertex="1" parent="nUuuc7FgtQ5q5KsPHUkl-32">
          <mxGeometry x="662" y="460" width="78" height="78" as="geometry" />
        </mxCell>
        <mxCell id="nUuuc7FgtQ5q5KsPHUkl-44" value="Amazon SNS:&lt;div&gt;Deployment Failure Topic&lt;/div&gt;" style="sketch=0;points=[[0,0,0],[0.25,0,0],[0.5,0,0],[0.75,0,0],[1,0,0],[0,1,0],[0.25,1,0],[0.5,1,0],[0.75,1,0],[1,1,0],[0,0.25,0],[0,0.5,0],[0,0.75,0],[1,0.25,0],[1,0.5,0],[1,0.75,0]];outlineConnect=0;fontColor=#232F3E;fillColor=#E7157B;strokeColor=#ffffff;dashed=0;verticalLabelPosition=bottom;verticalAlign=top;align=center;html=1;fontSize=12;fontStyle=0;aspect=fixed;shape=mxgraph.aws4.resourceIcon;resIcon=mxgraph.aws4.sns;" vertex="1" parent="nUuuc7FgtQ5q5KsPHUkl-32">
          <mxGeometry x="472" y="100" width="78" height="78" as="geometry" />
        </mxCell>
        <mxCell id="nUuuc7FgtQ5q5KsPHUkl-69" value="" style="edgeStyle=orthogonalEdgeStyle;rounded=0;orthogonalLoop=1;jettySize=auto;html=1;" edge="1" parent="nUuuc7FgtQ5q5KsPHUkl-32" source="nUuuc7FgtQ5q5KsPHUkl-30" target="nUuuc7FgtQ5q5KsPHUkl-10">
          <mxGeometry relative="1" as="geometry" />
        </mxCell>
        <mxCell id="nUuuc7FgtQ5q5KsPHUkl-30" value="Approval" style="sketch=0;outlineConnect=0;fontColor=#232F3E;gradientColor=none;fillColor=#E7157B;strokeColor=none;dashed=0;verticalLabelPosition=bottom;verticalAlign=top;align=center;html=1;fontSize=12;fontStyle=0;aspect=fixed;pointerEvents=1;shape=mxgraph.aws4.checklist;" vertex="1" parent="nUuuc7FgtQ5q5KsPHUkl-32">
          <mxGeometry x="1252" y="303.5" width="66" height="78" as="geometry" />
        </mxCell>
        <mxCell id="nUuuc7FgtQ5q5KsPHUkl-68" style="edgeStyle=orthogonalEdgeStyle;rounded=0;orthogonalLoop=1;jettySize=auto;html=1;" edge="1" parent="nUuuc7FgtQ5q5KsPHUkl-32" source="nUuuc7FgtQ5q5KsPHUkl-11" target="nUuuc7FgtQ5q5KsPHUkl-30">
          <mxGeometry relative="1" as="geometry" />
        </mxCell>
        <mxCell id="nUuuc7FgtQ5q5KsPHUkl-89" style="edgeStyle=orthogonalEdgeStyle;rounded=0;orthogonalLoop=1;jettySize=auto;html=1;" edge="1" parent="nUuuc7FgtQ5q5KsPHUkl-32" source="nUuuc7FgtQ5q5KsPHUkl-11" target="nUuuc7FgtQ5q5KsPHUkl-88">
          <mxGeometry relative="1" as="geometry" />
        </mxCell>
        <mxCell id="nUuuc7FgtQ5q5KsPHUkl-92" style="edgeStyle=orthogonalEdgeStyle;rounded=0;orthogonalLoop=1;jettySize=auto;html=1;" edge="1" parent="nUuuc7FgtQ5q5KsPHUkl-32" source="nUuuc7FgtQ5q5KsPHUkl-11">
          <mxGeometry relative="1" as="geometry">
            <mxPoint x="1091" y="880" as="targetPoint" />
          </mxGeometry>
        </mxCell>
        <mxCell id="nUuuc7FgtQ5q5KsPHUkl-11" value="CodeDeploy&lt;div&gt;Blue/Green deployment&lt;/div&gt;&lt;div&gt;Auto-Rollback&lt;/div&gt;" style="sketch=0;points=[[0,0,0],[0.25,0,0],[0.5,0,0],[0.75,0,0],[1,0,0],[0,1,0],[0.25,1,0],[0.5,1,0],[0.75,1,0],[1,1,0],[0,0.25,0],[0,0.5,0],[0,0.75,0],[1,0.25,0],[1,0.5,0],[1,0.75,0]];outlineConnect=0;fontColor=#232F3E;fillColor=#C925D1;strokeColor=#ffffff;dashed=0;verticalLabelPosition=bottom;verticalAlign=top;align=center;html=1;fontSize=12;fontStyle=0;aspect=fixed;shape=mxgraph.aws4.resourceIcon;resIcon=mxgraph.aws4.codedeploy;" vertex="1" parent="nUuuc7FgtQ5q5KsPHUkl-32">
          <mxGeometry x="1052" y="303.5" width="78" height="78" as="geometry" />
        </mxCell>
        <mxCell id="nUuuc7FgtQ5q5KsPHUkl-10" value="Update ALB Target Groups" style="sketch=0;points=[[0,0,0],[0.25,0,0],[0.5,0,0],[0.75,0,0],[1,0,0],[0,1,0],[0.25,1,0],[0.5,1,0],[0.75,1,0],[1,1,0],[0,0.25,0],[0,0.5,0],[0,0.75,0],[1,0.25,0],[1,0.5,0],[1,0.75,0]];outlineConnect=0;fontColor=#232F3E;fillColor=#ED7100;strokeColor=#ffffff;dashed=0;verticalLabelPosition=bottom;verticalAlign=top;align=center;html=1;fontSize=12;fontStyle=0;aspect=fixed;shape=mxgraph.aws4.resourceIcon;resIcon=mxgraph.aws4.lambda;" vertex="1" parent="nUuuc7FgtQ5q5KsPHUkl-32">
          <mxGeometry x="1412" y="303.5" width="78" height="78" as="geometry" />
        </mxCell>
        <mxCell id="nUuuc7FgtQ5q5KsPHUkl-86" value="Amazon SNS:&lt;div&gt;Approval Pending&amp;nbsp;Topic&lt;/div&gt;" style="sketch=0;points=[[0,0,0],[0.25,0,0],[0.5,0,0],[0.75,0,0],[1,0,0],[0,1,0],[0.25,1,0],[0.5,1,0],[0.75,1,0],[1,1,0],[0,0.25,0],[0,0.5,0],[0,0.75,0],[1,0.25,0],[1,0.5,0],[1,0.75,0]];outlineConnect=0;fontColor=#232F3E;fillColor=#E7157B;strokeColor=#ffffff;dashed=0;verticalLabelPosition=bottom;verticalAlign=top;align=center;html=1;fontSize=12;fontStyle=0;aspect=fixed;shape=mxgraph.aws4.resourceIcon;resIcon=mxgraph.aws4.sns;" vertex="1" parent="nUuuc7FgtQ5q5KsPHUkl-32">
          <mxGeometry x="866" y="100" width="78" height="78" as="geometry" />
        </mxCell>
        <mxCell id="nUuuc7FgtQ5q5KsPHUkl-88" value="Amazon SNS:&lt;div&gt;Rollback Triggered&amp;nbsp;Topic&lt;/div&gt;" style="sketch=0;points=[[0,0,0],[0.25,0,0],[0.5,0,0],[0.75,0,0],[1,0,0],[0,1,0],[0.25,1,0],[0.5,1,0],[0.75,1,0],[1,1,0],[0,0.25,0],[0,0.5,0],[0,0.75,0],[1,0.25,0],[1,0.5,0],[1,0.75,0]];outlineConnect=0;fontColor=#232F3E;fillColor=#E7157B;strokeColor=#ffffff;dashed=0;verticalLabelPosition=bottom;verticalAlign=top;align=center;html=1;fontSize=12;fontStyle=0;aspect=fixed;shape=mxgraph.aws4.resourceIcon;resIcon=mxgraph.aws4.sns;" vertex="1" parent="nUuuc7FgtQ5q5KsPHUkl-32">
          <mxGeometry x="1052" y="100" width="78" height="78" as="geometry" />
        </mxCell>
        <mxCell id="nUuuc7FgtQ5q5KsPHUkl-14" value="IAM" style="outlineConnect=0;dashed=0;verticalLabelPosition=bottom;verticalAlign=top;align=center;html=1;shape=mxgraph.aws3.iam;fillColor=#759C3E;gradientColor=none;" vertex="1" parent="nUuuc7FgtQ5q5KsPHUkl-32">
          <mxGeometry x="32" y="30" width="42" height="81" as="geometry" />
        </mxCell>
        <mxCell id="nUuuc7FgtQ5q5KsPHUkl-66" style="edgeStyle=orthogonalEdgeStyle;rounded=0;orthogonalLoop=1;jettySize=auto;html=1;" edge="1" parent="nUuuc7FgtQ5q5KsPHUkl-9" source="nUuuc7FgtQ5q5KsPHUkl-36" target="nUuuc7FgtQ5q5KsPHUkl-46">
          <mxGeometry relative="1" as="geometry" />
        </mxCell>
        <mxCell id="nUuuc7FgtQ5q5KsPHUkl-36" value="Test and promote image" style="sketch=0;points=[[0,0,0],[0.25,0,0],[0.5,0,0],[0.75,0,0],[1,0,0],[0,1,0],[0.25,1,0],[0.5,1,0],[0.75,1,0],[1,1,0],[0,0.25,0],[0,0.5,0],[0,0.75,0],[1,0.25,0],[1,0.5,0],[1,0.75,0]];outlineConnect=0;fontColor=#232F3E;fillColor=#C925D1;strokeColor=#ffffff;dashed=0;verticalLabelPosition=bottom;verticalAlign=top;align=center;html=1;fontSize=12;fontStyle=0;aspect=fixed;shape=mxgraph.aws4.resourceIcon;resIcon=mxgraph.aws4.codebuild;" vertex="1" parent="nUuuc7FgtQ5q5KsPHUkl-9">
          <mxGeometry x="710" y="363.5" width="78" height="78" as="geometry" />
        </mxCell>
        <mxCell id="nUuuc7FgtQ5q5KsPHUkl-45" style="edgeStyle=orthogonalEdgeStyle;rounded=0;orthogonalLoop=1;jettySize=auto;html=1;" edge="1" parent="nUuuc7FgtQ5q5KsPHUkl-9" source="nUuuc7FgtQ5q5KsPHUkl-35" target="nUuuc7FgtQ5q5KsPHUkl-44">
          <mxGeometry relative="1" as="geometry" />
        </mxCell>
        <mxCell id="nUuuc7FgtQ5q5KsPHUkl-65" value="" style="edgeStyle=orthogonalEdgeStyle;rounded=0;orthogonalLoop=1;jettySize=auto;html=1;" edge="1" parent="nUuuc7FgtQ5q5KsPHUkl-9" source="nUuuc7FgtQ5q5KsPHUkl-35" target="nUuuc7FgtQ5q5KsPHUkl-36">
          <mxGeometry relative="1" as="geometry" />
        </mxCell>
        <mxCell id="nUuuc7FgtQ5q5KsPHUkl-35" value="Validate and Deploy to Test" style="sketch=0;points=[[0,0,0],[0.25,0,0],[0.5,0,0],[0.75,0,0],[1,0,0],[0,1,0],[0.25,1,0],[0.5,1,0],[0.75,1,0],[1,1,0],[0,0.25,0],[0,0.5,0],[0,0.75,0],[1,0.25,0],[1,0.5,0],[1,0.75,0]];outlineConnect=0;fontColor=#232F3E;fillColor=#C925D1;strokeColor=#ffffff;dashed=0;verticalLabelPosition=bottom;verticalAlign=top;align=center;html=1;fontSize=12;fontStyle=0;aspect=fixed;shape=mxgraph.aws4.resourceIcon;resIcon=mxgraph.aws4.codebuild;" vertex="1" parent="nUuuc7FgtQ5q5KsPHUkl-9">
          <mxGeometry x="520" y="363.5" width="78" height="78" as="geometry" />
        </mxCell>
        <mxCell id="nUuuc7FgtQ5q5KsPHUkl-37" value="&lt;span style=&quot;color: rgb(35, 47, 62);&quot;&gt;CodePipeline: CI/CD Pipeline&lt;/span&gt;" style="text;html=1;align=center;verticalAlign=middle;resizable=0;points=[];autosize=1;strokeColor=none;fillColor=none;" vertex="1" parent="nUuuc7FgtQ5q5KsPHUkl-9">
          <mxGeometry x="80" y="300" width="180" height="30" as="geometry" />
        </mxCell>
        <mxCell id="nUuuc7FgtQ5q5KsPHUkl-38" style="edgeStyle=orthogonalEdgeStyle;rounded=0;orthogonalLoop=1;jettySize=auto;html=1;entryX=1;entryY=0.5;entryDx=0;entryDy=0;entryPerimeter=0;dashed=1;" edge="1" parent="nUuuc7FgtQ5q5KsPHUkl-9" source="nUuuc7FgtQ5q5KsPHUkl-35" target="nUuuc7FgtQ5q5KsPHUkl-22">
          <mxGeometry relative="1" as="geometry">
            <Array as="points">
              <mxPoint x="530" y="559" />
            </Array>
          </mxGeometry>
        </mxCell>
        <mxCell id="nUuuc7FgtQ5q5KsPHUkl-43" style="edgeStyle=orthogonalEdgeStyle;rounded=0;orthogonalLoop=1;jettySize=auto;html=1;entryX=0.5;entryY=0;entryDx=0;entryDy=0;entryPerimeter=0;" edge="1" parent="nUuuc7FgtQ5q5KsPHUkl-9" source="nUuuc7FgtQ5q5KsPHUkl-36" target="nUuuc7FgtQ5q5KsPHUkl-42">
          <mxGeometry relative="1" as="geometry" />
        </mxCell>
        <mxCell id="nUuuc7FgtQ5q5KsPHUkl-87" style="edgeStyle=orthogonalEdgeStyle;rounded=0;orthogonalLoop=1;jettySize=auto;html=1;" edge="1" parent="nUuuc7FgtQ5q5KsPHUkl-9" source="nUuuc7FgtQ5q5KsPHUkl-46" target="nUuuc7FgtQ5q5KsPHUkl-86">
          <mxGeometry relative="1" as="geometry" />
        </mxCell>
        <mxCell id="nUuuc7FgtQ5q5KsPHUkl-46" value="Approval" style="sketch=0;outlineConnect=0;fontColor=#232F3E;gradientColor=none;fillColor=#E7157B;strokeColor=none;dashed=0;verticalLabelPosition=bottom;verticalAlign=top;align=center;html=1;fontSize=12;fontStyle=0;aspect=fixed;pointerEvents=1;shape=mxgraph.aws4.checklist;" vertex="1" parent="nUuuc7FgtQ5q5KsPHUkl-9">
          <mxGeometry x="920" y="363.5" width="66" height="78" as="geometry" />
        </mxCell>
        <mxCell id="nUuuc7FgtQ5q5KsPHUkl-67" style="edgeStyle=orthogonalEdgeStyle;rounded=0;orthogonalLoop=1;jettySize=auto;html=1;entryX=0;entryY=0.5;entryDx=0;entryDy=0;entryPerimeter=0;" edge="1" parent="nUuuc7FgtQ5q5KsPHUkl-9" source="nUuuc7FgtQ5q5KsPHUkl-46" target="nUuuc7FgtQ5q5KsPHUkl-11">
          <mxGeometry relative="1" as="geometry" />
        </mxCell>
        <mxCell id="nUuuc7FgtQ5q5KsPHUkl-72" style="edgeStyle=orthogonalEdgeStyle;rounded=0;orthogonalLoop=1;jettySize=auto;html=1;entryX=0;entryY=0.5;entryDx=0;entryDy=0;entryPerimeter=0;" edge="1" parent="nUuuc7FgtQ5q5KsPHUkl-9" source="nUuuc7FgtQ5q5KsPHUkl-7" target="nUuuc7FgtQ5q5KsPHUkl-35">
          <mxGeometry relative="1" as="geometry" />
        </mxCell>
        <mxCell id="nUuuc7FgtQ5q5KsPHUkl-39" value="Production Account" style="points=[[0,0],[0.25,0],[0.5,0],[0.75,0],[1,0],[1,0.25],[1,0.5],[1,0.75],[1,1],[0.75,1],[0.5,1],[0.25,1],[0,1],[0,0.75],[0,0.5],[0,0.25]];outlineConnect=0;gradientColor=none;html=1;whiteSpace=wrap;fontSize=12;fontStyle=0;container=1;pointerEvents=0;collapsible=0;recursiveResize=0;shape=mxgraph.aws4.group;grIcon=mxgraph.aws4.group_aws_cloud_alt;strokeColor=#232F3E;fillColor=none;verticalAlign=top;align=left;spacingLeft=30;fontColor=#232F3E;dashed=0;" vertex="1" parent="1">
          <mxGeometry x="1240" y="1160" width="700" height="320" as="geometry" />
        </mxCell>
        <mxCell id="nUuuc7FgtQ5q5KsPHUkl-50" value="ALB" style="outlineConnect=0;dashed=0;verticalLabelPosition=bottom;verticalAlign=top;align=center;html=1;shape=mxgraph.aws3.application_load_balancer;fillColor=#F58534;gradientColor=none;" vertex="1" parent="nUuuc7FgtQ5q5KsPHUkl-39">
          <mxGeometry x="134.5" y="120" width="69" height="72" as="geometry" />
        </mxCell>
        <mxCell id="nUuuc7FgtQ5q5KsPHUkl-57" value="AWS Fargate&lt;br&gt;Green Task" style="sketch=0;points=[[0,0,0],[0.25,0,0],[0.5,0,0],[0.75,0,0],[1,0,0],[0,1,0],[0.25,1,0],[0.5,1,0],[0.75,1,0],[1,1,0],[0,0.25,0],[0,0.5,0],[0,0.75,0],[1,0.25,0],[1,0.5,0],[1,0.75,0]];outlineConnect=0;fillColor=#d5e8d4;strokeColor=#82b366;dashed=0;verticalLabelPosition=bottom;verticalAlign=top;align=center;html=1;fontSize=12;fontStyle=0;aspect=fixed;shape=mxgraph.aws4.resourceIcon;resIcon=mxgraph.aws4.fargate;" vertex="1" parent="nUuuc7FgtQ5q5KsPHUkl-39">
          <mxGeometry x="486" y="180" width="78" height="78" as="geometry" />
        </mxCell>
        <mxCell id="nUuuc7FgtQ5q5KsPHUkl-76" value="" style="edgeStyle=orthogonalEdgeStyle;rounded=0;orthogonalLoop=1;jettySize=auto;html=1;dashed=1;fillColor=#d5e8d4;strokeColor=#82b366;" edge="1" parent="nUuuc7FgtQ5q5KsPHUkl-39" source="nUuuc7FgtQ5q5KsPHUkl-73" target="nUuuc7FgtQ5q5KsPHUkl-57">
          <mxGeometry relative="1" as="geometry" />
        </mxCell>
        <mxCell id="nUuuc7FgtQ5q5KsPHUkl-73" value="Green Target Group" style="sketch=0;points=[[0,0,0],[0.25,0,0],[0.5,0,0],[0.75,0,0],[1,0,0],[0,1,0],[0.25,1,0],[0.5,1,0],[0.75,1,0],[1,1,0],[0,0.25,0],[0,0.5,0],[0,0.75,0],[1,0.25,0],[1,0.5,0],[1,0.75,0]];outlineConnect=0;fillColor=#d5e8d4;strokeColor=#82b366;dashed=0;verticalLabelPosition=bottom;verticalAlign=top;align=center;html=1;fontSize=12;fontStyle=0;aspect=fixed;shape=mxgraph.aws4.resourceIcon;resIcon=mxgraph.aws4.elastic_load_balancing;" vertex="1" parent="nUuuc7FgtQ5q5KsPHUkl-39">
          <mxGeometry x="320" y="180" width="78" height="78" as="geometry" />
        </mxCell>
        <mxCell id="nUuuc7FgtQ5q5KsPHUkl-79" value="AWS Fargate&lt;br&gt;Blue Task" style="sketch=0;points=[[0,0,0],[0.25,0,0],[0.5,0,0],[0.75,0,0],[1,0,0],[0,1,0],[0.25,1,0],[0.5,1,0],[0.75,1,0],[1,1,0],[0,0.25,0],[0,0.5,0],[0,0.75,0],[1,0.25,0],[1,0.5,0],[1,0.75,0]];outlineConnect=0;fillColor=#dae8fc;strokeColor=#6c8ebf;dashed=0;verticalLabelPosition=bottom;verticalAlign=top;align=center;html=1;fontSize=12;fontStyle=0;aspect=fixed;shape=mxgraph.aws4.resourceIcon;resIcon=mxgraph.aws4.fargate;" vertex="1" parent="nUuuc7FgtQ5q5KsPHUkl-39">
          <mxGeometry x="486" y="42" width="78" height="78" as="geometry" />
        </mxCell>
        <mxCell id="nUuuc7FgtQ5q5KsPHUkl-80" value="" style="edgeStyle=orthogonalEdgeStyle;rounded=0;orthogonalLoop=1;jettySize=auto;html=1;dashed=1;fillColor=#dae8fc;strokeColor=#6c8ebf;" edge="1" parent="nUuuc7FgtQ5q5KsPHUkl-39" source="nUuuc7FgtQ5q5KsPHUkl-81" target="nUuuc7FgtQ5q5KsPHUkl-79">
          <mxGeometry relative="1" as="geometry" />
        </mxCell>
        <mxCell id="nUuuc7FgtQ5q5KsPHUkl-81" value="&lt;b&gt;Blue Target Group&lt;/b&gt;" style="sketch=0;points=[[0,0,0],[0.25,0,0],[0.5,0,0],[0.75,0,0],[1,0,0],[0,1,0],[0.25,1,0],[0.5,1,0],[0.75,1,0],[1,1,0],[0,0.25,0],[0,0.5,0],[0,0.75,0],[1,0.25,0],[1,0.5,0],[1,0.75,0]];outlineConnect=0;fillColor=#dae8fc;strokeColor=#6c8ebf;dashed=0;verticalLabelPosition=bottom;verticalAlign=top;align=center;html=1;fontSize=12;fontStyle=0;aspect=fixed;shape=mxgraph.aws4.resourceIcon;resIcon=mxgraph.aws4.elastic_load_balancing;" vertex="1" parent="nUuuc7FgtQ5q5KsPHUkl-39">
          <mxGeometry x="320" y="42" width="78" height="78" as="geometry" />
        </mxCell>
        <mxCell id="nUuuc7FgtQ5q5KsPHUkl-82" style="edgeStyle=orthogonalEdgeStyle;rounded=0;orthogonalLoop=1;jettySize=auto;html=1;entryX=0;entryY=0.5;entryDx=0;entryDy=0;entryPerimeter=0;curved=1;" edge="1" parent="nUuuc7FgtQ5q5KsPHUkl-39" source="nUuuc7FgtQ5q5KsPHUkl-50" target="nUuuc7FgtQ5q5KsPHUkl-81">
          <mxGeometry relative="1" as="geometry" />
        </mxCell>
        <mxCell id="nUuuc7FgtQ5q5KsPHUkl-85" value="10%" style="edgeLabel;html=1;align=center;verticalAlign=middle;resizable=0;points=[];" vertex="1" connectable="0" parent="nUuuc7FgtQ5q5KsPHUkl-82">
          <mxGeometry x="0.188" y="-5" relative="1" as="geometry">
            <mxPoint y="1" as="offset" />
          </mxGeometry>
        </mxCell>
        <mxCell id="nUuuc7FgtQ5q5KsPHUkl-83" style="edgeStyle=orthogonalEdgeStyle;rounded=0;orthogonalLoop=1;jettySize=auto;html=1;entryX=0;entryY=0.5;entryDx=0;entryDy=0;entryPerimeter=0;curved=1;" edge="1" parent="nUuuc7FgtQ5q5KsPHUkl-39" source="nUuuc7FgtQ5q5KsPHUkl-50" target="nUuuc7FgtQ5q5KsPHUkl-73">
          <mxGeometry relative="1" as="geometry" />
        </mxCell>
        <mxCell id="nUuuc7FgtQ5q5KsPHUkl-84" value="90%" style="edgeLabel;html=1;align=center;verticalAlign=middle;resizable=0;points=[];" vertex="1" connectable="0" parent="nUuuc7FgtQ5q5KsPHUkl-83">
          <mxGeometry x="0.1727" y="5" relative="1" as="geometry">
            <mxPoint as="offset" />
          </mxGeometry>
        </mxCell>
        <mxCell id="nUuuc7FgtQ5q5KsPHUkl-40" value="Test Account" style="points=[[0,0],[0.25,0],[0.5,0],[0.75,0],[1,0],[1,0.25],[1,0.5],[1,0.75],[1,1],[0.75,1],[0.5,1],[0.25,1],[0,1],[0,0.75],[0,0.5],[0,0.25]];outlineConnect=0;gradientColor=none;html=1;whiteSpace=wrap;fontSize=12;fontStyle=0;container=1;pointerEvents=0;collapsible=0;recursiveResize=0;shape=mxgraph.aws4.group;grIcon=mxgraph.aws4.group_aws_cloud_alt;strokeColor=#232F3E;fillColor=none;verticalAlign=top;align=left;spacingLeft=30;fontColor=#232F3E;dashed=0;" vertex="1" parent="1">
          <mxGeometry x="704" y="1240" width="250" height="130" as="geometry" />
        </mxCell>
        <mxCell id="nUuuc7FgtQ5q5KsPHUkl-47" value="AWS Fargate" style="sketch=0;points=[[0,0,0],[0.25,0,0],[0.5,0,0],[0.75,0,0],[1,0,0],[0,1,0],[0.25,1,0],[0.5,1,0],[0.75,1,0],[1,1,0],[0,0.25,0],[0,0.5,0],[0,0.75,0],[1,0.25,0],[1,0.5,0],[1,0.75,0]];outlineConnect=0;fontColor=#232F3E;fillColor=#ED7100;strokeColor=#ffffff;dashed=0;verticalLabelPosition=bottom;verticalAlign=top;align=center;html=1;fontSize=12;fontStyle=0;aspect=fixed;shape=mxgraph.aws4.resourceIcon;resIcon=mxgraph.aws4.fargate;" vertex="1" parent="nUuuc7FgtQ5q5KsPHUkl-40">
          <mxGeometry x="100" y="26" width="78" height="78" as="geometry" />
        </mxCell>
        <mxCell id="nUuuc7FgtQ5q5KsPHUkl-41" style="edgeStyle=orthogonalEdgeStyle;rounded=0;orthogonalLoop=1;jettySize=auto;html=1;entryX=0.5;entryY=0;entryDx=0;entryDy=0;" edge="1" parent="1" source="nUuuc7FgtQ5q5KsPHUkl-35" target="nUuuc7FgtQ5q5KsPHUkl-40">
          <mxGeometry relative="1" as="geometry" />
        </mxCell>
        <mxCell id="nUuuc7FgtQ5q5KsPHUkl-60" style="edgeStyle=orthogonalEdgeStyle;rounded=0;orthogonalLoop=1;jettySize=auto;html=1;entryX=0.5;entryY=0;entryDx=0;entryDy=0;entryPerimeter=0;strokeColor=none;" edge="1" parent="1" source="nUuuc7FgtQ5q5KsPHUkl-11" target="nUuuc7FgtQ5q5KsPHUkl-50">
          <mxGeometry relative="1" as="geometry" />
        </mxCell>
      </root>
    </mxGraphModel>
  </diagram>
</mxfile>
